<?xml version="1.0" encoding="UTF-8"?>
<!DOCTYPE svg PUBLIC "-//W3C//DTD SVG 1.1//EN" "http://www.w3.org/Graphics/SVG/1.1/DTD/svg11.dtd">
<!-- Creator: CorelDRAW -->
<svg xmlns="http://www.w3.org/2000/svg" xml:space="preserve" width="84.4205mm" height="20.0001mm" version="1.1" style="shape-rendering:geometricPrecision; text-rendering:geometricPrecision; image-rendering:optimizeQuality; fill-rule:evenodd; clip-rule:evenodd"
viewBox="0 0 844.206 200.001"
 xmlns:xlink="http://www.w3.org/1999/xlink"
 xmlns:xodm="http://www.corel.com/coreldraw/odm/2003">
 <defs>
  <style type="text/css">
   <![CDATA[
    .fil1 {fill:#009933}
    .fil0 {fill:#666666}
   ]]>
  </style>
 </defs>
 <g id="Layer_x0020_1">
  <metadata id="CorelCorpID_0Corel-Layer"/>
  <path class="fil0" d="M40 0.001l382.103 0 0 200 -382.103 0c-22.001,0 -40,-18 -40,-40l0 -119.999c0,-22 17.999,-40 40,-40l0 -0.001zm372.102 189.999l0 -180 -372.102 0c-16.481,0 -30,13.519 -30,30l0 119.999c0,16.481 13.519,30 30,30l372.102 0 0 0.001zm-298.723 -142.669l0 105.341 -27.434 0 0 -44.214 -7.991 0 0 44.214 -27.434 0 0 -105.341 27.434 0 0 37.688 7.991 0 0 -37.688 27.434 0zm11.075 0l20.487 0c13.206,0 22.151,0.599 26.812,1.82 4.661,1.22 8.213,3.218 10.632,5.993 2.42,2.774 3.951,5.859 4.549,9.255 0.6,3.418 0.91,10.099 0.91,20.087l0 36.89c0,9.455 -0.443,15.781 -1.331,18.955 -0.888,3.196 -2.442,5.704 -4.639,7.502 -2.22,1.798 -4.951,3.041 -8.213,3.773 -3.24,0.71 -8.146,1.065 -14.693,1.065l-34.514 0 0 -105.341 0 0.001zm27.434 17.978l0 69.384c3.884,0 6.282,-0.799 7.169,-2.375 0.911,-1.598 1.354,-5.904 1.354,-12.94l0 -40.973c0,-4.772 -0.155,-7.835 -0.443,-9.189 -0.311,-1.354 -0.977,-2.331 -2.065,-2.952 -1.065,-0.645 -3.063,-0.955 -6.014,-0.955l-0.001 0zm130.599 -17.978l0 105.341 -23.971 0 -0.067 -71.114 -9.522 71.114 -16.78 0 -10.055 -69.517 -0.066 69.517 -23.972 0 0 -105.341 35.403 0c0.998,6.37 2.086,13.872 3.262,22.44l3.885 26.746 6.237 -49.185 35.646 0 0 -0.001zm38.465 0l0 105.341 -27.434 0 0 -105.341 27.434 0zm50.629 0l0 105.341 -26.235 0 0 -56.555c0,-8.167 -0.2,-13.096 -0.577,-14.739 -0.4,-1.643 -1.465,-2.908 -3.219,-3.751 -1.753,-0.845 -5.66,-1.265 -11.719,-1.265l-2.598 0 0 -12.23c12.696,-2.708 22.329,-8.324 28.899,-16.802l15.448 0 0.001 0.001z"/>
  <path class="fil1" d="M422.101 0.001l382.103 0c22,0 40.001,18 40.001,40l0 119.999c0,22 -18.001,40 -40.001,40l-382.103 0 0 -200 0 0.001zm104.123 48.328l0 105.341 -27.434 0 0 -44.214 -7.991 0 0 44.214 -27.434 0 0 -105.341 27.434 0 0 37.688 7.991 0 0 -37.688 27.434 0zm11.075 0l20.487 0c13.206,0 22.151,0.599 26.812,1.82 4.661,1.22 8.213,3.218 10.632,5.993 2.42,2.774 3.951,5.859 4.549,9.255 0.6,3.418 0.91,10.099 0.91,20.087l0 36.89c0,9.455 -0.443,15.781 -1.331,18.955 -0.888,3.196 -2.442,5.704 -4.639,7.502 -2.22,1.798 -4.951,3.041 -8.213,3.773 -3.24,0.71 -8.146,1.065 -14.693,1.065l-34.514 0 0 -105.341 0 0.001zm27.433 17.979l0 69.384c3.884,0 6.282,-0.799 7.169,-2.375 0.911,-1.598 1.354,-5.904 1.354,-12.94l0 -40.973c0,-4.772 -0.155,-7.835 -0.443,-9.189 -0.311,-1.354 -0.977,-2.331 -2.065,-2.952 -1.065,-0.645 -3.063,-0.955 -6.014,-0.955l-0.001 0zm130.6 -17.979l0 105.341 -23.971 0 -0.067 -71.114 -9.522 71.114 -16.78 0 -10.055 -69.517 -0.066 69.517 -23.972 0 0 -105.341 35.403 0c0.998,6.37 2.086,13.872 3.262,22.44l3.885 26.746 6.237 -49.185 35.646 0 0 -0.001zm38.465 0l0 105.341 -27.434 0 0 -105.341 27.434 0zm66.745 87.362l0 17.979 -57.798 0 0.045 -15.049c17.135,-27.989 27.323,-45.301 30.564,-51.96 3.24,-6.659 4.86,-11.853 4.86,-15.56 0,-2.863 -0.51,-4.994 -1.487,-6.414 -0.976,-1.398 -2.463,-2.108 -4.461,-2.108 -1.998,0 -3.507,0.777 -4.484,2.331 -0.976,1.554 -1.464,4.639 -1.464,9.255l0 9.988 -23.572 0 0 -3.84c0,-5.882 0.31,-10.543 0.91,-13.939 0.599,-3.396 2.108,-6.748 4.483,-10.033 2.398,-3.286 5.505,-5.793 9.322,-7.48 3.818,-1.687 8.39,-2.53 13.717,-2.53 10.455,0 18.355,2.598 23.728,7.768 5.349,5.194 8.035,11.742 8.035,19.666 0,6.037 -1.51,12.407 -4.528,19.133 -3.019,6.725 -11.919,20.975 -26.679,42.793l28.811 0 -0.002 0z"/>
 </g>
</svg>
