<?xml version="1.0" encoding="UTF-8"?>
<!DOCTYPE svg PUBLIC "-//W3C//DTD SVG 1.1//EN" "http://www.w3.org/Graphics/SVG/1.1/DTD/svg11.dtd">
<!-- Creator: CorelDRAW -->
<svg xmlns="http://www.w3.org/2000/svg" xml:space="preserve" width="6.3315mm" height="1.5mm" version="1.1" style="shape-rendering:geometricPrecision; text-rendering:geometricPrecision; image-rendering:optimizeQuality; fill-rule:evenodd; clip-rule:evenodd"
viewBox="0 0 63.316 15"
 xmlns:xlink="http://www.w3.org/1999/xlink"
 xmlns:xodm="http://www.corel.com/coreldraw/odm/2003">
 <defs>
  <style type="text/css">
   <![CDATA[
    .fil0 {fill:#666666}
   ]]>
  </style>
 </defs>
 <g id="Layer_x0020_1">
  <metadata id="CorelCorpID_0Corel-Layer"/>
  <path class="fil0" d="M31.658 15l-28.657 0c-1.651,0 -3,-1.35 -3,-3l0 -9c0,-1.65 1.349,-3 3,-3l0 0 14.329 0 14.328 0 28.657 0c1.65,0 3.001,1.35 3.001,3l0 9c0,1.65 -1.351,3 -3.001,3l-28.657 0zm-0.75 -0.75l0 -13.5 -27.907 0c-1.237,0 -2.25,1.014 -2.25,2.25l0 9c0,1.236 1.013,2.25 2.25,2.25l27.907 0 0 0zm-22.404 -10.7l0 7.9 -2.058 0 0 -3.316 -0.599 0 0 3.316 -2.057 0 0 -7.9 2.057 0 0 2.826 0.599 0 0 -2.826 2.058 0zm0.831 0l1.536 0c0.99,0 1.661,0.045 2.011,0.136 0.35,0.092 0.616,0.242 0.797,0.45 0.182,0.208 0.297,0.439 0.342,0.694 0.045,0.256 0.068,0.757 0.068,1.506l0 2.767c0,0.709 -0.033,1.184 -0.1,1.422 -0.067,0.239 -0.183,0.428 -0.348,0.562 -0.166,0.135 -0.371,0.228 -0.616,0.283 -0.243,0.054 -0.611,0.08 -1.102,0.08l-2.588 0 0 -7.9 0 0zm2.057 1.348l0 5.204c0.291,0 0.471,-0.06 0.538,-0.178 0.068,-0.12 0.101,-0.443 0.101,-0.971l0 -3.073c0,-0.358 -0.011,-0.587 -0.033,-0.689 -0.023,-0.101 -0.073,-0.175 -0.155,-0.221 -0.08,-0.049 -0.23,-0.072 -0.451,-0.072l0 0zm9.795 -1.348l0 7.9 -1.798 0 -0.005 -5.333 -0.714 5.333 -1.259 0 -0.754 -5.213 -0.005 5.213 -1.798 0 0 -7.9 2.656 0c0.075,0.478 0.156,1.04 0.244,1.683l0.292 2.006 0.468 -3.689 2.673 0 0 0zm2.885 0l0 7.9 -2.058 0 0 -7.9 2.058 0zm3.797 0l0 7.9 -1.968 0 0 -4.241c0,-0.613 -0.015,-0.982 -0.043,-1.106 -0.03,-0.123 -0.11,-0.218 -0.241,-0.281 -0.132,-0.063 -0.425,-0.095 -0.879,-0.095l-0.195 0 0 -0.917c0.952,-0.203 1.675,-0.624 2.167,-1.26l1.159 0 0 0zm4.539 -2.8l0 13.5 27.907 0c1.236,0 2.25,-1.014 2.25,-2.25l0 -9c0,-1.236 -1.014,-2.25 -2.25,-2.25l-27.907 0zm7.059 2.875l0 7.9 -2.057 0 0 -3.316 -0.6 0 0 3.316 -2.057 0 0 -7.9 2.057 0 0 2.826 0.6 0 0 -2.826 2.057 0zm0.831 0l1.536 0c0.991,0 1.662,0.045 2.011,0.136 0.35,0.092 0.616,0.241 0.798,0.45 0.181,0.208 0.296,0.439 0.341,0.694 0.045,0.256 0.068,0.757 0.068,1.506l0 2.767c0,0.709 -0.033,1.184 -0.1,1.422 -0.066,0.239 -0.183,0.427 -0.348,0.562 -0.166,0.135 -0.371,0.228 -0.616,0.283 -0.243,0.053 -0.611,0.08 -1.102,0.08l-2.588 0 0 -7.9 0 0zm2.057 1.348l0 5.204c0.291,0 0.471,-0.06 0.538,-0.178 0.068,-0.12 0.101,-0.443 0.101,-0.971l0 -3.073c0,-0.358 -0.011,-0.587 -0.033,-0.689 -0.023,-0.101 -0.073,-0.175 -0.155,-0.221 -0.08,-0.049 -0.229,-0.072 -0.451,-0.072l0 0zm9.795 -1.348l0 7.9 -1.798 0 -0.005 -5.333 -0.714 5.333 -1.258 0 -0.754 -5.214 -0.005 5.214 -1.798 0 0 -7.9 2.655 0c0.075,0.477 0.156,1.04 0.245,1.683l0.291 2.006 0.468 -3.689 2.673 0 0 0zm2.885 0l0 7.9 -2.058 0 0 -7.9 2.058 0zm5.006 6.552l0 1.348 -4.335 0 0.003 -1.129c1.285,-2.099 2.05,-3.397 2.293,-3.896 0.243,-0.5 0.364,-0.889 0.364,-1.167 0,-0.215 -0.038,-0.375 -0.111,-0.482 -0.074,-0.104 -0.185,-0.158 -0.335,-0.158 -0.15,0 -0.263,0.059 -0.336,0.175 -0.073,0.117 -0.11,0.348 -0.11,0.694l0 0.749 -1.768 0 0 -0.288c0,-0.441 0.023,-0.79 0.068,-1.045 0.045,-0.255 0.158,-0.506 0.337,-0.752 0.179,-0.247 0.412,-0.435 0.699,-0.561 0.286,-0.127 0.629,-0.19 1.028,-0.19 0.785,0 1.377,0.195 1.78,0.582 0.401,0.39 0.603,0.881 0.603,1.475 0,0.453 -0.114,0.931 -0.34,1.435 -0.226,0.505 -0.894,1.573 -2.001,3.21l2.161 0 0 0z"/>
 </g>
</svg>
