<?xml version="1.0" encoding="UTF-8"?>
<!DOCTYPE svg PUBLIC "-//W3C//DTD SVG 1.1//EN" "http://www.w3.org/Graphics/SVG/1.1/DTD/svg11.dtd">
<!-- Creator: CorelDRAW -->
<svg xmlns="http://www.w3.org/2000/svg" xml:space="preserve" width="34.3836mm" height="34.3836mm" version="1.1" style="shape-rendering:geometricPrecision; text-rendering:geometricPrecision; image-rendering:optimizeQuality; fill-rule:evenodd; clip-rule:evenodd"
viewBox="0 0 125.98 125.98"
 xmlns:xlink="http://www.w3.org/1999/xlink"
 xmlns:xodm="http://www.corel.com/coreldraw/odm/2003">
 <defs>
  <style type="text/css">
   <![CDATA[
    .fil0 {fill:lime;fill-rule:nonzero}
   ]]>
  </style>
 </defs>
 <g id="Layer_x0020_1">
  <metadata id="CorelCorpID_0Corel-Layer"/>
  <path class="fil0" d="M8.52 121.35c-1.07,1.07 -2.81,1.07 -3.89,0 -1.07,-1.07 -1.07,-2.81 0,-3.89l11.91 -11.91c-10.28,-11.21 -16.55,-26.15 -16.55,-42.56 0,-16.41 6.27,-31.35 16.55,-42.56l-11.91 -11.91c-1.07,-1.07 -1.07,-2.81 0,-3.89 1.07,-1.07 2.81,-1.07 3.89,0l11.91 11.91c11.21,-10.28 26.15,-16.55 42.56,-16.55 16.41,0 31.35,6.27 42.56,16.55l11.91 -11.91c1.07,-1.07 2.81,-1.07 3.89,0 1.07,1.07 1.07,2.81 0,3.89l-11.91 11.91c10.28,11.21 16.55,26.15 16.55,42.56 0,16.41 -6.27,31.35 -16.55,42.56l11.91 11.91c1.07,1.07 1.07,2.81 0,3.89 -1.07,1.07 -2.81,1.07 -3.89,0l-11.91 -11.91c-11.21,10.28 -26.15,16.55 -42.56,16.55 -16.41,0 -31.35,-6.27 -42.56,-16.55l-11.91 11.91zm11.92 -19.69l20.01 -20.01c1.07,-1.07 2.81,-1.07 3.89,0 1.07,1.07 1.07,2.81 0,3.89l-20.01 20.01c10.21,9.28 23.78,14.94 38.67,14.94 14.89,0 28.45,-5.66 38.67,-14.94l-20.01 -20.01c-1.07,-1.07 -1.07,-2.81 0,-3.89 1.07,-1.07 2.81,-1.07 3.89,0l20.01 20.01c9.28,-10.21 14.94,-23.78 14.94,-38.67 0,-14.89 -5.66,-28.46 -14.94,-38.67l-20.01 20.01c-1.07,1.07 -2.81,1.07 -3.89,0 -1.07,-1.07 -1.07,-2.81 0,-3.89l20.01 -20.01c-10.21,-9.28 -23.78,-14.94 -38.67,-14.94 -14.89,0 -28.46,5.66 -38.67,14.94l20.01 20.01c1.07,1.07 1.07,2.81 0,3.89 -1.07,1.07 -2.81,1.07 -3.89,0l-20.01 -20.01c-9.28,10.21 -14.94,23.78 -14.94,38.67 0,14.89 5.66,28.46 14.94,38.67z"/>
 </g>
</svg>
