<?xml version="1.0" encoding="UTF-8"?>
<!DOCTYPE svg PUBLIC "-//W3C//DTD SVG 1.1//EN" "http://www.w3.org/Graphics/SVG/1.1/DTD/svg11.dtd">
<!-- Creator: CorelDRAW -->
<svg xmlns="http://www.w3.org/2000/svg" xml:space="preserve" width="281.677mm" height="248.465mm" version="1.1" style="shape-rendering:geometricPrecision; text-rendering:geometricPrecision; image-rendering:optimizeQuality; fill-rule:evenodd; clip-rule:evenodd"
viewBox="0 0 27185.77 23980.31"
 xmlns:xlink="http://www.w3.org/1999/xlink"
 xmlns:xodm="http://www.corel.com/coreldraw/odm/2003">
 <defs>
  <style type="text/css">
   <![CDATA[
    .fil0 {fill:lime;fill-rule:nonzero}
   ]]>
  </style>
 </defs>
 <g id="Layer_x0020_1">
  <metadata id="CorelCorpID_0Corel-Layer"/>
  <path class="fil0" d="M12062.54 11918.05l948.29 -0.01c39.82,0 72.11,32.28 72.11,72.11 0,39.82 -32.28,72.11 -72.11,72.11l-948.29 0.01 0 171.17c0,39.98 -32.41,72.39 -72.39,72.39 -39.98,0 -72.39,-32.41 -72.39,-72.39l0 -486.53c0,-39.98 32.41,-72.39 72.39,-72.39 39.98,0 72.39,32.41 72.39,72.39l0 171.15zm3934.84 2132.58c18.84,-18.84 49.4,-18.84 68.24,0 18.84,18.84 18.84,49.4 0,68.24l-137.9 137.9 1065.07 1065.07 137.9 -137.9c18.84,-18.84 49.4,-18.84 68.24,0 18.84,18.84 18.84,49.4 0,68.24l-137.9 137.9 1065.07 1065.06 180.9 -180.9c18.84,-18.84 49.4,-18.84 68.24,0 18.84,18.84 18.84,49.4 0,68.24l-180.9 180.9 1065.07 1065.07 234.65 -234.65c18.84,-18.84 49.4,-18.84 68.24,0 18.84,18.84 18.84,49.4 0,68.24l-234.65 234.65 1065.06 1065.06 234.65 -234.65c18.84,-18.84 49.4,-18.84 68.24,0 18.84,18.84 18.84,49.4 0,68.24l-234.65 234.65 1065.07 1065.07 234.65 -234.65c18.84,-18.84 49.4,-18.84 68.24,0 18.84,18.84 18.84,49.4 0,68.24l-234.65 234.65 1065.07 1065.07 234.65 -234.65c18.84,-18.84 49.4,-18.84 68.24,0 18.84,18.84 18.84,49.4 0,68.24l-234.65 234.65 468.86 468.86c18.84,18.84 18.84,49.4 0,68.24 -18.84,18.84 -49.4,18.84 -68.24,0l-468.86 -468.86 -234.65 234.65c-18.84,18.84 -49.4,18.84 -68.24,0 -18.84,-18.84 -18.84,-49.4 0,-68.24l234.65 -234.65 -1065.07 -1065.07 -234.65 234.65c-18.84,18.84 -49.4,18.84 -68.24,0 -18.84,-18.84 -18.84,-49.4 0,-68.24l234.65 -234.65 -1065.07 -1065.07 -234.65 234.65c-18.84,18.84 -49.4,18.84 -68.24,0 -18.84,-18.84 -18.84,-49.4 0,-68.24l234.65 -234.65 -1065.06 -1065.06 -234.65 234.65c-18.84,18.84 -49.4,18.84 -68.24,0 -18.84,-18.84 -18.84,-49.4 0,-68.24l234.65 -234.65 -1065.07 -1065.07 -180.9 180.9c-18.84,18.84 -49.4,18.84 -68.24,0 -18.84,-18.84 -18.84,-49.4 0,-68.24l180.9 -180.9 -1065.07 -1065.06 -137.89 137.89c-18.84,18.84 -49.4,18.84 -68.24,0 -18.84,-18.84 -18.84,-49.4 0,-68.24l137.89 -137.89 -1065.07 -1065.07 -137.89 137.89c-18.84,18.84 -49.4,18.84 -68.24,0 -18.84,-18.84 -18.84,-49.4 0,-68.24l137.89 -137.89 -731.16 -731.16c-18.84,-18.84 -18.84,-49.4 0,-68.24 18.84,-18.84 49.4,-18.84 68.24,0l731.16 731.16 137.9 -137.9zm-4464.98 344.02c18.84,18.84 18.84,49.4 0,68.24 -18.84,18.84 -49.4,18.84 -68.24,0l-137.9 -137.9 -1065.07 1065.07 137.9 137.9c18.84,18.84 18.84,49.4 0,68.24 -18.84,18.84 -49.4,18.84 -68.24,0l-137.9 -137.9 -1065.06 1065.07 180.9 180.9c18.84,18.84 18.84,49.4 0,68.24 -18.84,18.84 -49.4,18.84 -68.24,0l-180.9 -180.9 -1065.07 1065.07 234.65 234.65c18.84,18.84 18.84,49.4 0,68.24 -18.84,18.84 -49.4,18.84 -68.24,0l-234.65 -234.65 -1065.06 1065.06 234.65 234.65c18.84,18.84 18.84,49.4 0,68.24 -18.84,18.84 -49.4,18.84 -68.24,0l-234.65 -234.65 -1065.07 1065.07 234.65 234.65c18.84,18.84 18.84,49.4 0,68.24 -18.84,18.84 -49.4,18.84 -68.24,0l-234.65 -234.65 -1065.07 1065.07 234.65 234.65c18.84,18.84 18.84,49.4 0,68.24 -18.84,18.84 -49.4,18.84 -68.24,0l-234.65 -234.65 -468.86 468.86c-18.84,18.84 -49.4,18.84 -68.24,0 -18.84,-18.84 -18.84,-49.4 0,-68.24l468.86 -468.86 -234.65 -234.65c-18.84,-18.84 -18.84,-49.4 0,-68.24 18.84,-18.84 49.4,-18.84 68.24,0l234.65 234.65 1065.07 -1065.07 -234.65 -234.65c-18.84,-18.84 -18.84,-49.4 0,-68.24 18.84,-18.84 49.4,-18.84 68.24,0l234.65 234.65 1065.07 -1065.07 -234.65 -234.65c-18.84,-18.84 -18.84,-49.4 0,-68.24 18.84,-18.84 49.4,-18.84 68.24,0l234.65 234.65 1065.06 -1065.06 -234.65 -234.65c-18.84,-18.84 -18.84,-49.4 0,-68.24 18.84,-18.84 49.4,-18.84 68.24,0l234.65 234.65 1065.07 -1065.07 -180.9 -180.9c-18.84,-18.84 -18.84,-49.4 0,-68.24 18.84,-18.84 49.4,-18.84 68.24,0l180.9 180.9 1065.06 -1065.07 -137.89 -137.89c-18.84,-18.84 -18.84,-49.4 0,-68.24 18.84,-18.84 49.4,-18.84 68.24,0l137.89 137.89 1065.07 -1065.07 -137.89 -137.89c-18.84,-18.84 -18.84,-49.4 0,-68.24 18.84,-18.84 49.4,-18.84 68.24,0l137.89 137.89 731.16 -731.16c18.84,-18.84 49.4,-18.84 68.24,0 18.84,18.84 18.84,49.4 0,68.24l-731.16 731.16 137.9 137.9zm4550.28 -4550.26c28.26,28.26 28.26,74.1 0,102.36 -28.26,28.26 -74.1,28.26 -102.36,0l-137.91 -137.92 -714.1 714.1c-18.84,18.84 -49.4,18.84 -68.24,0 -18.84,-18.84 -18.84,-49.4 0,-68.24l714.1 -714.1 -137.9 -137.89c-28.26,-28.26 -28.26,-74.1 0,-102.36 28.26,-28.26 74.1,-28.26 102.36,0l137.9 137.89 1030.94 -1030.94 -137.9 -137.89c-28.26,-28.26 -28.26,-74.1 0,-102.36 28.26,-28.26 74.1,-28.26 102.36,0l137.9 137.89 1030.93 -1030.93 -180.9 -180.89c-28.26,-28.26 -28.26,-74.1 0,-102.36 28.26,-28.26 74.1,-28.26 102.36,0l180.9 180.89 1030.93 -1030.93 -234.64 -234.64c-28.26,-28.26 -28.26,-74.1 0,-102.36 28.26,-28.26 74.1,-28.26 102.36,0l234.64 234.64 1030.94 -1030.94 -234.64 -234.65c-28.26,-28.26 -28.26,-74.1 0,-102.36 28.26,-28.26 74.1,-28.26 102.36,0l234.64 234.65 1030.95 -1030.95 -234.64 -234.64c-28.26,-28.26 -28.26,-74.1 0,-102.36 28.26,-28.26 74.1,-28.26 102.36,0l234.64 234.64 1030.93 -1030.92 -234.64 -234.64c-28.26,-28.26 -28.26,-74.1 0,-102.36 28.26,-28.26 74.1,-28.26 102.36,0l234.64 234.64 451.82 -451.81c18.84,-18.84 49.4,-18.84 68.24,0 18.84,18.84 18.84,49.4 0,68.24l-451.82 451.81 234.65 234.65c28.26,28.26 28.26,74.1 0,102.36 -28.26,28.26 -74.1,28.26 -102.36,0l-234.65 -234.65 -1030.93 1030.92 234.66 234.66c28.26,28.26 28.26,74.1 0,102.36 -28.26,28.26 -74.1,28.26 -102.36,0l-234.66 -234.66 -1030.95 1030.95 234.65 234.66c28.26,28.26 28.26,74.1 0,102.36 -28.26,28.26 -74.1,28.26 -102.36,0l-234.65 -234.66 -1030.94 1030.94 234.66 234.66c28.26,28.26 28.26,74.1 0,102.36 -28.26,28.26 -74.1,28.26 -102.36,0l-234.66 -234.66 -1030.93 1030.93 180.91 180.92c28.26,28.26 28.26,74.1 0,102.36 -28.26,28.26 -74.1,28.26 -102.36,0l-180.91 -180.92 -1030.93 1030.93 137.91 137.92c28.26,28.26 28.26,74.1 0,102.36 -28.26,28.26 -74.1,28.26 -102.36,0l-137.91 -137.92 -1030.94 1030.94 137.91 137.92zm-4635.56 -344.04c28.26,-28.26 74.1,-28.26 102.36,0 28.26,28.26 28.26,74.1 0,102.36l-137.92 137.91 714.1 714.1c18.84,18.84 18.84,49.4 0,68.24 -18.84,18.84 -49.4,18.84 -68.24,0l-714.1 -714.1 -137.89 137.9c-28.26,28.26 -74.1,28.26 -102.36,0 -28.26,-28.26 -28.26,-74.1 0,-102.36l137.89 -137.9 -1030.94 -1030.94 -137.89 137.9c-28.26,28.26 -74.1,28.26 -102.36,0 -28.26,-28.26 -28.26,-74.1 0,-102.36l137.89 -137.9 -1030.93 -1030.93 -180.89 180.9c-28.26,28.26 -74.1,28.26 -102.36,0 -28.26,-28.26 -28.26,-74.1 0,-102.36l180.89 -180.9 -1030.93 -1030.93 -234.64 234.64c-28.26,28.26 -74.1,28.26 -102.36,0 -28.26,-28.26 -28.26,-74.1 0,-102.36l234.64 -234.64 -1030.94 -1030.94 -234.65 234.64c-28.26,28.26 -74.1,28.26 -102.36,0 -28.26,-28.26 -28.26,-74.1 0,-102.36l234.65 -234.64 -1030.95 -1030.95 -234.64 234.64c-28.26,28.26 -74.1,28.26 -102.36,0 -28.26,-28.26 -28.26,-74.1 0,-102.36l234.64 -234.64 -1030.92 -1030.93 -234.64 234.64c-28.26,28.26 -74.1,28.26 -102.36,0 -28.26,-28.26 -28.26,-74.1 0,-102.36l234.64 -234.64 -451.81 -451.82c-18.84,-18.84 -18.84,-49.4 0,-68.24 18.84,-18.84 49.4,-18.84 68.24,0l451.81 451.82 234.65 -234.65c28.26,-28.26 74.1,-28.26 102.36,0 28.26,28.26 28.26,74.1 0,102.36l-234.65 234.65 1030.92 1030.93 234.66 -234.66c28.26,-28.26 74.1,-28.26 102.36,0 28.26,28.26 28.26,74.1 0,102.36l-234.66 234.66 1030.95 1030.95 234.66 -234.65c28.26,-28.26 74.1,-28.26 102.36,0 28.26,28.26 28.26,74.1 0,102.36l-234.66 234.65 1030.94 1030.94 234.66 -234.66c28.26,-28.26 74.1,-28.26 102.36,0 28.26,28.26 28.26,74.1 0,102.36l-234.66 234.66 1030.93 1030.93 180.92 -180.91c28.26,-28.26 74.1,-28.26 102.36,0 28.26,28.26 28.26,74.1 0,102.36l-180.92 180.91 1030.93 1030.93 137.92 -137.91c28.26,-28.26 74.1,-28.26 102.36,0 28.26,28.26 28.26,74.1 0,102.36l-137.92 137.91 1030.94 1030.94 137.92 -137.91zm1904.22 12954.68l0 -776.11 -138.55 0c-39.98,0 -72.39,-32.41 -72.39,-72.39 0,-39.98 32.41,-72.39 72.39,-72.39l138.55 0 0 -211.7 169.1 -694.75 0 -551.52 -307.65 0c-39.98,0 -72.39,-32.41 -72.39,-72.39 0,-39.98 32.41,-72.39 72.39,-72.39l307.65 0 0 -1457.96 -307.65 0c-39.98,0 -72.39,-32.41 -72.39,-72.39 0,-39.98 32.41,-72.39 72.39,-72.39l307.65 0 0 -1457.96 -231.63 0c-39.98,0 -72.39,-32.41 -72.39,-72.39 0,-39.98 32.41,-72.39 72.39,-72.39l231.63 0 0 -1457.96 -170.81 0c-39.98,0 -72.39,-32.41 -72.39,-72.39 0,-39.98 32.41,-72.39 72.39,-72.39l170.81 0 0 -992.51c0,-39.98 32.41,-72.39 72.39,-72.39 39.98,0 72.39,32.41 72.39,72.39l0 992.51 170.95 0c39.98,0 72.39,32.41 72.39,72.39 0,39.98 -32.41,72.39 -72.39,72.39l-170.95 0 0 1457.96 231.76 0c39.98,0 72.39,32.41 72.39,72.39 0,39.98 -32.41,72.39 -72.39,72.39l-231.76 0 0 1457.96 307.77 0c39.98,0 72.39,32.41 72.39,72.39 0,39.98 -32.41,72.39 -72.39,72.39l-307.77 0 0 1457.96 307.77 0c39.98,0 72.39,32.41 72.39,72.39 0,39.98 -32.41,72.39 -72.39,72.39l-307.77 0 0 551.52 169.1 694.75 0 211.7 138.67 0c39.98,0 72.39,32.41 72.39,72.39 0,39.98 -32.41,72.39 -72.39,72.39l-138.67 0 0 1457.96 482.98 0c39.98,0 72.39,32.41 72.39,72.39 0,39.98 -32.41,72.39 -72.39,72.39l-482.98 0 0 698.65 -241.49 0 -241.49 0 0 -698.65 -482.87 0c-39.98,0 -72.39,-32.41 -72.39,-72.39 0,-39.98 32.41,-72.39 72.39,-72.39l482.87 0 0 -681.85zm484.82 -8934.54c39.98,0 72.39,32.41 72.39,72.39 0,39.98 -32.41,72.39 -72.39,72.39l-486.53 0c-39.98,0 -72.39,-32.41 -72.39,-72.39 0,-39.98 32.41,-72.39 72.39,-72.39l171.14 0 -0.01 -948.28c0,-39.82 32.28,-72.11 72.11,-72.11 39.82,0 72.11,32.28 72.11,72.11l0.01 948.28 171.18 0zm11824.34 -1288.8l-776.11 0 0 138.55c0,39.98 -32.41,72.39 -72.39,72.39 -39.98,0 -72.39,-32.41 -72.39,-72.39l0 -138.55 -211.7 0 -694.75 -169.1 -551.51 0 0 307.65c0,39.98 -32.41,72.39 -72.39,72.39 -39.98,0 -72.39,-32.41 -72.39,-72.39l0 -307.65 -1457.97 0 0 307.65c0,39.98 -32.41,72.39 -72.39,72.39 -39.98,0 -72.39,-32.41 -72.39,-72.39l0 -307.65 -1457.96 0 0 307.65c0,39.98 -32.41,72.39 -72.39,72.39 -39.98,0 -72.39,-32.41 -72.39,-72.39l0 -307.65 -1457.96 0 0 231.63c0,39.98 -32.41,72.39 -72.39,72.39 -39.98,0 -72.39,-32.41 -72.39,-72.39l0 -231.63 -1457.96 0 0 170.81c0,39.98 -32.41,72.39 -72.39,72.39 -39.98,0 -72.39,-32.41 -72.39,-72.39l0 -170.81 -992.51 0c-39.98,0 -72.39,-32.41 -72.39,-72.39 0,-39.98 32.41,-72.39 72.39,-72.39l992.51 0 0 -170.95c0,-39.98 32.41,-72.39 72.39,-72.39 39.98,0 72.39,32.41 72.39,72.39l0 170.95 1457.96 0 0 -231.76c0,-39.98 32.41,-72.39 72.39,-72.39 39.98,0 72.39,32.41 72.39,72.39l0 231.76 1457.96 0 0 -307.77c0,-39.98 32.41,-72.39 72.39,-72.39 39.98,0 72.39,32.41 72.39,72.39l0 307.77 1457.96 0 0 -307.77c0,-39.98 32.41,-72.39 72.39,-72.39 39.98,0 72.39,32.41 72.39,72.39l0 307.77 1457.97 0 0 -307.77c0,-39.98 32.41,-72.39 72.39,-72.39 39.98,0 72.39,32.41 72.39,72.39l0 307.77 551.51 0 694.75 -169.1 211.7 0 0 -138.67c0,-39.98 32.41,-72.39 72.39,-72.39 39.98,0 72.39,32.41 72.39,72.39l0 138.67 1457.96 0 0 -482.98c0,-39.98 32.41,-72.39 72.39,-72.39 39.98,0 72.39,32.41 72.39,72.39l0 482.98 698.65 0 0 241.49 0 241.49 -698.65 0 0 482.87c0,39.98 -32.41,72.39 -72.39,72.39 -39.98,0 -72.39,-32.41 -72.39,-72.39l0 -482.87 -681.85 0zm-10537.27 -484.82c0,-39.98 32.41,-72.39 72.39,-72.39 39.98,0 72.39,32.41 72.39,72.39l0 486.53c0,39.98 -32.41,72.39 -72.39,72.39 -39.98,0 -72.39,-32.41 -72.39,-72.39l0 -171.15 -948.29 -0.01c-39.82,0 -72.11,-32.28 -72.11,-72.11 0,-39.82 32.28,-72.11 72.11,-72.11l948.29 0.01 0 -171.17zm-13597.96 1.73l776.11 0 0 -138.55c0,-39.98 32.41,-72.39 72.39,-72.39 39.98,0 72.39,32.41 72.39,72.39l0 138.55 211.69 0 694.75 169.1 551.52 0 0 -307.65c0,-39.98 32.41,-72.39 72.39,-72.39 39.98,0 72.39,32.41 72.39,72.39l0 307.65 1457.97 0 0 -307.65c0,-39.98 32.41,-72.39 72.39,-72.39 39.98,0 72.39,32.41 72.39,72.39l0 307.65 1457.96 0 0 -307.65c0,-39.98 32.41,-72.39 72.39,-72.39 39.98,0 72.39,32.41 72.39,72.39l0 307.65 1457.96 0 0 -231.63c0,-39.98 32.41,-72.39 72.39,-72.39 39.98,0 72.39,32.41 72.39,72.39l0 231.63 1457.96 0 0 -170.81c0,-39.98 32.41,-72.39 72.39,-72.39 39.98,0 72.39,32.41 72.39,72.39l0 170.81 992.51 0c39.98,0 72.39,32.41 72.39,72.39 0,39.98 -32.41,72.39 -72.39,72.39l-992.51 0 0 170.95c0,39.98 -32.41,72.39 -72.39,72.39 -39.98,0 -72.39,-32.41 -72.39,-72.39l0 -170.95 -1457.96 0 0 231.76c0,39.98 -32.41,72.39 -72.39,72.39 -39.98,0 -72.39,-32.41 -72.39,-72.39l0 -231.76 -1457.96 0 0 307.77c0,39.98 -32.41,72.39 -72.39,72.39 -39.98,0 -72.39,-32.41 -72.39,-72.39l0 -307.77 -1457.96 0 0 307.77c0,39.98 -32.41,72.39 -72.39,72.39 -39.98,0 -72.39,-32.41 -72.39,-72.39l0 -307.77 -1457.97 0 0 307.77c0,39.98 -32.41,72.39 -72.39,72.39 -39.98,0 -72.39,-32.41 -72.39,-72.39l0 -307.77 -551.52 0 -694.75 169.1 -211.69 0 0 138.67c0,39.98 -32.41,72.39 -72.39,72.39 -39.98,0 -72.39,-32.41 -72.39,-72.39l0 -138.67 -1457.96 0 0 482.98c0,39.98 -32.41,72.39 -72.39,72.39 -39.98,0 -72.39,-32.41 -72.39,-72.39l0 -482.98 -698.65 0 0 -241.49 0 -241.49 698.65 0 0 -482.87c0,-39.98 32.41,-72.39 72.39,-72.39 39.98,0 72.39,32.41 72.39,72.39l0 482.87 681.85 0zm12309.16 -10223.34l0 776.11 138.55 0c39.98,0 72.39,32.41 72.39,72.39 0,39.98 -32.41,72.39 -72.39,72.39l-138.55 0 0 211.7 -169.1 694.75 0 551.52 307.65 0c39.98,0 72.39,32.41 72.39,72.39 0,39.98 -32.41,72.39 -72.39,72.39l-307.65 0 0 1457.96 307.65 0c39.98,0 72.39,32.41 72.39,72.39 0,39.98 -32.41,72.39 -72.39,72.39l-307.65 0 0 1457.96 231.63 0c39.98,0 72.39,32.41 72.39,72.39 0,39.98 -32.41,72.39 -72.39,72.39l-231.63 0 0 1457.96 170.81 0c39.98,0 72.39,32.41 72.39,72.39 0,39.98 -32.41,72.39 -72.39,72.39l-170.81 0 0 992.51c0,39.98 -32.41,72.39 -72.39,72.39 -39.98,0 -72.39,-32.41 -72.39,-72.39l0 -992.51 -170.95 0c-39.98,0 -72.39,-32.41 -72.39,-72.39 0,-39.98 32.41,-72.39 72.39,-72.39l170.95 0 0 -1457.96 -231.76 0c-39.98,0 -72.39,-32.41 -72.39,-72.39 0,-39.98 32.41,-72.39 72.39,-72.39l231.76 0 0 -1457.96 -307.77 0c-39.98,0 -72.39,-32.41 -72.39,-72.39 0,-39.98 32.41,-72.39 72.39,-72.39l307.77 0 0 -1457.96 -307.77 0c-39.98,0 -72.39,-32.41 -72.39,-72.39 0,-39.98 32.41,-72.39 72.39,-72.39l307.77 0 0 -551.52 -169.1 -694.75 0 -211.7 -138.67 0c-39.98,0 -72.39,-32.41 -72.39,-72.39 0,-39.98 32.41,-72.39 72.39,-72.39l138.67 0 0 -1457.96 -482.98 0c-39.98,0 -72.39,-32.41 -72.39,-72.39 0,-39.98 32.41,-72.39 72.39,-72.39l482.98 0 0 -698.65 241.49 0 241.49 0 0 698.65 482.87 0c39.98,0 72.39,32.41 72.39,72.39 0,39.98 -32.41,72.39 -72.39,72.39l-482.87 0 0 681.85zm-484.82 8934.54c-39.98,0 -72.39,-32.41 -72.39,-72.39 0,-39.98 32.41,-72.39 72.39,-72.39l486.53 0c39.98,0 72.39,32.41 72.39,72.39 0,39.98 -32.41,72.39 -72.39,72.39l-171.16 0 -0.01 948.3c0,39.82 -32.28,72.11 -72.11,72.11 -39.82,0 -72.11,-32.28 -72.11,-72.11l0.01 -948.3 -171.16 0z"/>
 </g>
</svg>
