<?xml version="1.0" encoding="UTF-8"?>
<!DOCTYPE svg PUBLIC "-//W3C//DTD SVG 1.1//EN" "http://www.w3.org/Graphics/SVG/1.1/DTD/svg11.dtd">
<!-- Creator: CorelDRAW -->
<svg xmlns="http://www.w3.org/2000/svg" xml:space="preserve" width="44.3454mm" height="21.7577mm" version="1.1" style="shape-rendering:geometricPrecision; text-rendering:geometricPrecision; image-rendering:optimizeQuality; fill-rule:evenodd; clip-rule:evenodd"
viewBox="0 0 18.36 9.008"
 xmlns:xlink="http://www.w3.org/1999/xlink"
 xmlns:xodm="http://www.corel.com/coreldraw/odm/2003">
 <defs>
  <style type="text/css">
   <![CDATA[
    .fil0 {fill:white}
    .fil1 {fill:white;fill-rule:nonzero}
   ]]>
  </style>
 </defs>
 <g id="Layer_x0020_1">
  <metadata id="CorelCorpID_0Corel-Layer"/>
  <g id="_2639553122736">
   <g>
    <path class="fil0" d="M1.995 3.384l0 2.24 3.031 0 2.195 0.892 -3.231 1.884 -3.989 0.607c0,-3.003 0,-6.005 0,-9.008l3.989 0.608 3.231 1.884 -2.195 0.892 -3.031 0zm-0.584 2.24l0 -2.24 0 -0.584 0.584 0 2.919 0 0.989 -0.402 -2.108 -1.229 -3.21 -0.489 0 7.649 3.21 -0.489 2.108 -1.229 -0.989 -0.402 -2.919 0 -0.584 0 0 -0.584z"/>
   </g>
   <g>
    <path class="fil0" d="M2.963 3.851l0.516 -0.131 0.223 -0.169 6.534 -2.653c0.416,-0.169 0.409,-0.173 0.858,-0.173l3.487 0c2.087,0 3.779,1.692 3.779,3.779 0,2.087 -1.692,3.779 -3.779,3.779l-3.487 0c-0.449,0 -0.442,-0.004 -0.858,-0.173l-6.534 -2.653 -0.223 -0.169 -0.516 -0.131 0 -1.306zm0.658 0.435l-0.074 0.019 0 0.399 0.074 0.019 0.112 0.028 0.098 0.074 0.155 0.118 6.469 2.627 0.042 0.017c0.27,0.11 0.276,0.112 0.597,0.112l3.487 0c0.882,0 1.681,-0.358 2.259,-0.936 0.578,-0.578 0.936,-1.377 0.936,-2.259 0,-0.882 -0.358,-1.681 -0.936,-2.259 -0.578,-0.578 -1.377,-0.936 -2.259,-0.936l-3.487 0c-0.321,0 -0.327,0.003 -0.597,0.112l-0.042 0.017 -6.469 2.627 -0.155 0.118 -0.098 0.074 -0.112 0.028z"/>
   </g>
   <g>
    <polygon class="fil1" points="11.696,0.728 11.696,8.283 11.112,8.283 11.112,0.728 "/>
   </g>
   <g>
    <path class="fil1" d="M0.156 7.171l2.838 -0.176 0.036 0.583 -2.838 0.176 -0.036 -0.583zm2.838 -5.156l-2.838 -0.176 0.036 -0.583 2.838 0.176 -0.036 0.583z"/>
   </g>
   <g>
    <polygon class="fil1" points="9.387,4.796 4.732,4.796 4.732,4.212 9.387,4.212 "/>
   </g>
  </g>
 </g>
</svg>
