<?xml version="1.0" encoding="UTF-8"?>
<!DOCTYPE svg PUBLIC "-//W3C//DTD SVG 1.1//EN" "http://www.w3.org/Graphics/SVG/1.1/DTD/svg11.dtd">
<!-- Creator: CorelDRAW -->
<svg xmlns="http://www.w3.org/2000/svg" xml:space="preserve" width="300mm" height="300mm" version="1.1" style="shape-rendering:geometricPrecision; text-rendering:geometricPrecision; image-rendering:optimizeQuality; fill-rule:evenodd; clip-rule:evenodd"
viewBox="0 0 30000 30000"
 xmlns:xlink="http://www.w3.org/1999/xlink"
 xmlns:xodm="http://www.corel.com/coreldraw/odm/2003">
 <defs>
  <style type="text/css">
   <![CDATA[
    .fil0 {fill:lime;fill-rule:nonzero}
   ]]>
  </style>
 </defs>
 <g id="Layer_x0020_1">
  <metadata id="CorelCorpID_0Corel-Layer"/>
  <path class="fil0" d="M5526.65 5603.3c-19.52,-19.52 -19.52,-51.18 0,-70.7 19.52,-19.52 51.18,-19.52 70.7,0l6804.64 6804.65c19.52,19.52 19.52,51.18 0,70.7 -19.52,19.52 -51.18,19.52 -70.7,0l-6804.64 -6804.65zm18870.05 -70.79c19.52,-19.52 51.18,-19.52 70.7,0 19.52,19.52 19.52,51.18 0,70.7l-6804.69 6804.68c-19.52,19.52 -51.18,19.52 -70.7,0 -19.52,-19.52 -19.52,-51.18 0,-70.7l6804.69 -6804.68zm70.7 18870.14c19.52,19.52 19.52,51.18 0,70.7 -19.52,19.52 -51.18,19.52 -70.7,0l-6804.69 -6804.68c-19.52,-19.52 -19.52,-51.18 0,-70.7 19.52,-19.52 51.18,-19.52 70.7,0l6804.69 6804.68zm-18870.05 70.61c-19.52,19.52 -51.18,19.52 -70.7,0 -19.52,-19.52 -19.52,-51.18 0,-70.7l6804.64 -6804.65c19.52,-19.52 51.18,-19.52 70.7,0 19.52,19.52 19.52,51.18 0,70.7l-6804.64 6804.65zm-3943.42 -9420.26c-27.61,0 -50,-22.39 -50,-50 0,-27.61 22.39,-50 50,-50l566.42 0 0 -1451.23c0,-27.61 22.39,-50 50,-50 27.61,0 50,22.39 50,50l0 1451.23 1243.82 0 0 -737.72c0,-27.61 22.39,-50 50,-50 27.61,0 50,22.39 50,50l0 737.72 1243.83 0 0 -737.72c0,-27.61 22.39,-50 50,-50 27.61,0 50,22.39 50,50l0 737.72 1243.82 0 0 -737.72c0,-27.61 22.39,-50 50,-50 27.61,0 50,22.39 50,50l0 737.72 1243.82 0 0 -737.72c0,-27.61 22.39,-50 50,-50 27.61,0 50,22.39 50,50l0 737.72 1243.83 0 0 -737.72c0,-27.61 22.39,-50 50,-50 27.61,0 50,22.39 50,50l0 737.72 1243.82 0 0 -737.72c0,-27.61 22.39,-50 50,-50 27.61,0 50,22.39 50,50l0 737.72 1243.83 0 0 -580.19c0,-27.61 22.39,-50 50,-50 27.61,0 50,22.39 50,50l0 580.19 1243.82 0 0 -454.17c0,-27.61 22.39,-50 50,-50 27.61,0 50,22.39 50,50l0 454.17 1053.36 0c27.61,0 50,22.39 50,50 0,27.61 -22.39,50 -50,50l-1053.36 0 0 454.03c0,27.61 -22.39,50 -50,50 -27.61,0 -50,-22.39 -50,-50l0 -454.03 -1243.82 0 0 580.06c0,27.61 -22.39,50 -50,50 -27.61,0 -50,-22.39 -50,-50l0 -580.06 -1243.83 0 0 737.59c0,27.61 -22.39,50 -50,50 -27.61,0 -50,-22.39 -50,-50l0 -737.59 -1243.82 0 0 737.59c0,27.61 -22.39,50 -50,50 -27.61,0 -50,-22.39 -50,-50l0 -737.59 -1243.83 0 0 737.59c0,27.61 -22.39,50 -50,50 -27.61,0 -50,-22.39 -50,-50l0 -737.59 -1243.82 0 0 737.59c0,27.61 -22.39,50 -50,50 -27.61,0 -50,-22.39 -50,-50l0 -737.59 -1243.82 0 0 737.59c0,27.61 -22.39,50 -50,50 -27.61,0 -50,-22.39 -50,-50l0 -737.59 -1243.83 0 0 737.59c0,27.61 -22.39,50 -50,50 -27.61,0 -50,-22.39 -50,-50l0 -737.59 -1243.82 0 0 1451.09c0,27.61 -22.39,50 -50,50 -27.61,0 -50,-22.39 -50,-50l0 -1451.09 -566.42 0zm13293.07 -13393.21c0,-27.61 22.39,-50 50,-50 27.61,0 50,22.39 50,50l0 566.42 1451.23 0c27.61,0 50,22.39 50,50 0,27.61 -22.39,50 -50,50l-1451.23 0 0 1243.82 737.72 0c27.61,0 50,22.39 50,50 0,27.61 -22.39,50 -50,50l-737.72 0 0 1243.83 737.72 0c27.61,0 50,22.39 50,50 0,27.61 -22.39,50 -50,50l-737.72 0 0 1243.82 737.72 0c27.61,0 50,22.39 50,50 0,27.61 -22.39,50 -50,50l-737.72 0 0 1243.82 737.72 0c27.61,0 50,22.39 50,50 0,27.61 -22.39,50 -50,50l-737.72 0 0 1243.83 737.72 0c27.61,0 50,22.39 50,50 0,27.61 -22.39,50 -50,50l-737.72 0 0 1243.82 737.72 0c27.61,0 50,22.39 50,50 0,27.61 -22.39,50 -50,50l-737.72 0 0 1243.83 580.19 0c27.61,0 50,22.39 50,50 0,27.61 -22.39,50 -50,50l-580.19 0 0 1243.82 454.17 0c27.61,0 50,22.39 50,50 0,27.61 -22.39,50 -50,50l-454.17 0 0 1053.36c0,27.61 -22.39,50 -50,50 -27.61,0 -50,-22.39 -50,-50l0 -1053.36 -454.03 0c-27.61,0 -50,-22.39 -50,-50 0,-27.61 22.39,-50 50,-50l454.03 0 0 -1243.82 -580.06 0c-27.61,0 -50,-22.39 -50,-50 0,-27.61 22.39,-50 50,-50l580.06 0 0 -1243.83 -737.59 0c-27.61,0 -50,-22.39 -50,-50 0,-27.61 22.39,-50 50,-50l737.59 0 0 -1243.82 -737.59 0c-27.61,0 -50,-22.39 -50,-50 0,-27.61 22.39,-50 50,-50l737.59 0 0 -1243.83 -737.59 0c-27.61,0 -50,-22.39 -50,-50 0,-27.61 22.39,-50 50,-50l737.59 0 0 -1243.82 -737.59 0c-27.61,0 -50,-22.39 -50,-50 0,-27.61 22.39,-50 50,-50l737.59 0 0 -1243.82 -737.59 0c-27.61,0 -50,-22.39 -50,-50 0,-27.61 22.39,-50 50,-50l737.59 0 0 -1243.83 -737.59 0c-27.61,0 -50,-22.39 -50,-50 0,-27.61 22.39,-50 50,-50l737.59 0 0 -1243.82 -1451.09 0c-27.61,0 -50,-22.39 -50,-50 0,-27.61 22.39,-50 50,-50l1451.09 0 0 -566.42zm13393.21 13293.21c27.61,0 50,22.39 50,50 0,27.61 -22.39,50 -50,50l-566.42 0 0 1451.09c0,27.61 -22.39,50 -50,50 -27.61,0 -50,-22.39 -50,-50l0 -1451.09 -1243.82 0 0 737.59c0,27.61 -22.39,50 -50,50 -27.61,0 -50,-22.39 -50,-50l0 -737.59 -1243.83 0 0 737.59c0,27.61 -22.39,50 -50,50 -27.61,0 -50,-22.39 -50,-50l0 -737.59 -1243.82 0 0 737.59c0,27.61 -22.39,50 -50,50 -27.61,0 -50,-22.39 -50,-50l0 -737.59 -1243.82 0 0 737.59c0,27.61 -22.39,50 -50,50 -27.61,0 -50,-22.39 -50,-50l0 -737.59 -1243.83 0 0 737.59c0,27.61 -22.39,50 -50,50 -27.61,0 -50,-22.39 -50,-50l0 -737.59 -1243.82 0 0 737.59c0,27.61 -22.39,50 -50,50 -27.61,0 -50,-22.39 -50,-50l0 -737.59 -1243.83 0 0 580.06c0,27.61 -22.39,50 -50,50 -27.61,0 -50,-22.39 -50,-50l0 -580.06 -1243.82 0 0 454.03c0,27.61 -22.39,50 -50,50 -27.61,0 -50,-22.39 -50,-50l0 -454.03 -1053.36 0c-27.61,0 -50,-22.39 -50,-50 0,-27.61 22.39,-50 50,-50l1053.36 0 0 -454.17c0,-27.61 22.39,-50 50,-50 27.61,0 50,22.39 50,50l0 454.17 1243.82 0 0 -580.19c0,-27.61 22.39,-50 50,-50 27.61,0 50,22.39 50,50l0 580.19 1243.83 0 0 -737.72c0,-27.61 22.39,-50 50,-50 27.61,0 50,22.39 50,50l0 737.72 1243.82 0 0 -737.72c0,-27.61 22.39,-50 50,-50 27.61,0 50,22.39 50,50l0 737.72 1243.83 0 0 -737.72c0,-27.61 22.39,-50 50,-50 27.61,0 50,22.39 50,50l0 737.72 1243.82 0 0 -737.72c0,-27.61 22.39,-50 50,-50 27.61,0 50,22.39 50,50l0 737.72 1243.82 0 0 -737.72c0,-27.61 22.39,-50 50,-50 27.61,0 50,22.39 50,50l0 737.72 1243.83 0 0 -737.72c0,-27.61 22.39,-50 50,-50 27.61,0 50,22.39 50,50l0 737.72 1243.82 0 0 -1451.23c0,-27.61 22.39,-50 50,-50 27.61,0 50,22.39 50,50l0 1451.23 566.42 0zm-13293.21 13393.07c0,27.61 -22.39,50 -50,50 -27.61,0 -50,-22.39 -50,-50l0 -566.42 -1451.09 0c-27.61,0 -50,-22.39 -50,-50 0,-27.61 22.39,-50 50,-50l1451.09 0 0 -1243.82 -737.59 0c-27.61,0 -50,-22.39 -50,-50 0,-27.61 22.39,-50 50,-50l737.59 0 0 -1243.83 -737.59 0c-27.61,0 -50,-22.39 -50,-50 0,-27.61 22.39,-50 50,-50l737.59 0 0 -1243.82 -737.59 0c-27.61,0 -50,-22.39 -50,-50 0,-27.61 22.39,-50 50,-50l737.59 0 0 -1243.82 -737.59 0c-27.61,0 -50,-22.39 -50,-50 0,-27.61 22.39,-50 50,-50l737.59 0 0 -1243.83 -737.59 0c-27.61,0 -50,-22.39 -50,-50 0,-27.61 22.39,-50 50,-50l737.59 0 0 -1243.82 -737.59 0c-27.61,0 -50,-22.39 -50,-50 0,-27.61 22.39,-50 50,-50l737.59 0 0 -1243.83 -580.06 0c-27.61,0 -50,-22.39 -50,-50 0,-27.61 22.39,-50 50,-50l580.06 0 0 -1243.82 -454.03 0c-27.61,0 -50,-22.39 -50,-50 0,-27.61 22.39,-50 50,-50l454.03 0 0 -1053.36c0,-27.61 22.39,-50 50,-50 27.61,0 50,22.39 50,50l0 1053.36 454.17 0c27.61,0 50,22.39 50,50 0,27.61 -22.39,50 -50,50l-454.17 0 0 1243.82 580.19 0c27.61,0 50,22.39 50,50 0,27.61 -22.39,50 -50,50l-580.19 0 0 1243.83 737.72 0c27.61,0 50,22.39 50,50 0,27.61 -22.39,50 -50,50l-737.72 0 0 1243.82 737.72 0c27.61,0 50,22.39 50,50 0,27.61 -22.39,50 -50,50l-737.72 0 0 1243.83 737.72 0c27.61,0 50,22.39 50,50 0,27.61 -22.39,50 -50,50l-737.72 0 0 1243.82 737.72 0c27.61,0 50,22.39 50,50 0,27.61 -22.39,50 -50,50l-737.72 0 0 1243.82 737.72 0c27.61,0 50,22.39 50,50 0,27.61 -22.39,50 -50,50l-737.72 0 0 1243.83 737.72 0c27.61,0 50,22.39 50,50 0,27.61 -22.39,50 -50,50l-737.72 0 0 1243.82 1451.23 0c27.61,0 50,22.39 50,50 0,27.61 -22.39,50 -50,50l-1451.23 0 0 566.42z"/>
 </g>
</svg>
