<?xml version="1.0" encoding="UTF-8"?>
<!DOCTYPE svg PUBLIC "-//W3C//DTD SVG 1.1//EN" "http://www.w3.org/Graphics/SVG/1.1/DTD/svg11.dtd">
<!-- Creator: CorelDRAW -->
<svg xmlns="http://www.w3.org/2000/svg" xml:space="preserve" width="20.7322mm" height="20.9452mm" version="1.1" style="shape-rendering:geometricPrecision; text-rendering:geometricPrecision; image-rendering:optimizeQuality; fill-rule:evenodd; clip-rule:evenodd"
viewBox="0 0 207.322 209.452"
 xmlns:xlink="http://www.w3.org/1999/xlink"
 xmlns:xodm="http://www.corel.com/coreldraw/odm/2003"
 xmlns:dc="http://purl.org/dc/elements/1.1/"
 xmlns:cc="http://creativecommons.org/ns#"
 xmlns:rdf="http://www.w3.org/1999/02/22-rdf-syntax-ns#"
 xmlns:svg="http://www.w3.org/2000/svg"
 xmlns:sodipodi="http://sodipodi.sourceforge.net/DTD/sodipodi-0.dtd"
 xmlns:inkscape="http://www.inkscape.org/namespaces/inkscape"
 sodipodi:docname="pipHide.svg"
 inkscape:version="0.92.2 5c3e80d, 2017-08-06">
 <defs>
  <style type="text/css">
   <![CDATA[
    .str0 {stroke:black;stroke-width:15.285;stroke-linecap:round;stroke-linejoin:round;stroke-miterlimit:22.9256}
    .fil0 {fill:none}
    .fil1 {fill:none;fill-rule:nonzero}
   ]]>
  </style>
 </defs>
 <g id="Layer_x0020_1">
  <metadata id="CorelCorpID_0Corel-Layer"/>
  <sodipodi:namedview pagecolor="#ffffff" bordercolor="#666666" borderopacity="1" objecttolerance="10" gridtolerance="10" guidetolerance="10" inkscape:pageopacity="0" inkscape:pageshadow="2" inkscape:window-width="2560" inkscape:window-height="1025" id="namedview6" showgrid="false" inkscape:zoom="5.6568543" inkscape:cx="29.512391" inkscape:cy="16.118589" inkscape:window-x="0" inkscape:window-y="0" inkscape:window-maximized="1" inkscape:current-layer="svg2"/>
  <path id="path12" class="fil0" d="M-0.445 104.658l0 -104.605 4.365 0.193c6.935,0.307 13.701,0.775 16.109,1.115 1.222,0.172 4.436,0.606 7.142,0.964 8.271,1.093 19.318,3.444 27.774,5.91 31.601,9.217 59.859,25.232 83.639,47.401 2.87,2.675 7.035,6.844 11.11,11.118 3.819,4.007 9.867,11.33 14.037,16.998 17.252,23.452 29.028,49.169 35.596,77.741 2.903,12.628 4.924,29.892 4.95,42.295l0.012 5.475 -102.367 0.001 -102.367 0 0 -104.606zm157.296 57.461c0.962,-0.595 1.919,-1.552 2.514,-2.514l0.961 -1.553 0.107 -8.176c0.129,-9.855 -0.064,-11.166 -1.943,-13.204 -2.357,-2.558 0.767,-2.341 -40.539,-2.814 -20.338,-0.233 -38.764,-0.432 -40.946,-0.441l-3.968 -0.017 -0.094 -9.76c-0.051,-5.368 -0.154,-13.188 -0.227,-17.378 -0.073,-4.19 -0.221,-17.974 -0.328,-30.63 -0.217,-25.655 -0.19,-25.332 -2.274,-27.363 -2.145,-2.09 -2.526,-2.157 -12.423,-2.157 -9.885,0 -10.187,0.052 -12.379,2.14 -0.818,0.779 -1.387,1.688 -1.641,2.621 -0.568,2.087 -0.227,105.629 0.353,107.374 0.219,0.66 0.897,1.712 1.506,2.339 2.242,2.309 0.09,2.156 33.062,2.341 16.323,0.092 40.259,0.163 53.192,0.159l23.514 -0.008 1.554 -0.961 -0.001 0.002z" inkscape:connector-curvature="0"/>
  <path id="path14" class="fil0" d="M-0.445 104.658l0 -104.605 4.365 0.193c6.935,0.307 13.701,0.775 16.109,1.115 1.222,0.172 4.436,0.606 7.142,0.964 8.271,1.093 19.318,3.444 27.774,5.91 31.601,9.217 59.859,25.232 83.639,47.401 2.87,2.675 7.035,6.844 11.11,11.118 3.819,4.007 9.867,11.33 14.037,16.998 17.252,23.452 29.028,49.169 35.596,77.741 2.903,12.628 4.924,29.892 4.95,42.295l0.012 5.475 -102.367 0.001 -102.367 0 0 -104.606zm157.296 57.461c0.962,-0.595 1.919,-1.552 2.514,-2.514l0.961 -1.553 0.107 -8.176c0.129,-9.855 -0.064,-11.166 -1.943,-13.204 -2.357,-2.558 0.767,-2.341 -40.539,-2.814 -20.338,-0.233 -38.764,-0.432 -40.946,-0.441l-3.968 -0.017 -0.094 -9.76c-0.051,-5.368 -0.154,-13.188 -0.227,-17.378 -0.073,-4.19 -0.221,-17.974 -0.328,-30.63 -0.217,-25.655 -0.19,-25.332 -2.274,-27.363 -2.145,-2.09 -2.526,-2.157 -12.423,-2.157 -9.885,0 -10.187,0.052 -12.379,2.14 -0.818,0.779 -1.387,1.688 -1.641,2.621 -0.568,2.087 -0.227,105.629 0.353,107.374 0.219,0.66 0.897,1.712 1.506,2.339 2.242,2.309 0.09,2.156 33.062,2.341 16.323,0.092 40.259,0.163 53.192,0.159l23.514 -0.008 1.554 -0.961 -0.001 0.002z" inkscape:connector-curvature="0"/>
  <polyline id="polyline34" class="fil1 str0" points="118.728,106.624 69.875,142.487 21.021,106.624 "/>
  <polyline id="polyline36" class="fil1 str0" points="118.728,65.599 69.875,101.462 21.021,65.599 "/>
  <polyline id="polyline38" class="fil1 str0" points="118.728,24.574 69.875,60.437 21.021,24.574 "/>
 </g>
</svg>
