<?xml version="1.0" encoding="UTF-8"?>
<!DOCTYPE svg PUBLIC "-//W3C//DTD SVG 1.1//EN" "http://www.w3.org/Graphics/SVG/1.1/DTD/svg11.dtd">
<!-- Creator: CorelDRAW -->
<svg xmlns="http://www.w3.org/2000/svg" xml:space="preserve" width="281.677mm" height="248.465mm" version="1.1" style="shape-rendering:geometricPrecision; text-rendering:geometricPrecision; image-rendering:optimizeQuality; fill-rule:evenodd; clip-rule:evenodd"
viewBox="0 0 38245.41 33735.91"
 xmlns:xlink="http://www.w3.org/1999/xlink"
 xmlns:xodm="http://www.corel.com/coreldraw/odm/2003">
 <defs>
  <style type="text/css">
   <![CDATA[
    .fil0 {fill:lime;fill-rule:nonzero}
   ]]>
  </style>
 </defs>
 <g id="Layer_x0020_1">
  <metadata id="CorelCorpID_0Corel-Layer"/>
  <path class="fil0" d="M22747.38 19524.66c26.5,-26.5 69.49,-26.5 95.99,0 26.5,26.5 26.5,69.49 0,95.99l-436 436.01 1498.36 1498.36 436 -436.01c26.5,-26.5 69.49,-26.5 95.99,0 26.5,26.5 26.5,69.49 0,95.99l-436 436.01 1498.35 1498.35 556.99 -556.99c26.5,-26.5 69.49,-26.5 95.99,0 26.5,26.5 26.5,69.49 0,95.99l-556.99 556.99 1498.36 1498.35 708.23 -708.23c26.5,-26.5 69.49,-26.5 95.99,0 26.5,26.5 26.5,69.49 0,95.99l-708.23 708.23 1498.36 1498.36 708.23 -708.23c26.5,-26.5 69.49,-26.5 95.99,0 26.5,26.5 26.5,69.49 0,95.99l-708.23 708.23 1498.36 1498.36 708.23 -708.23c26.5,-26.5 69.49,-26.5 95.99,0 26.5,26.5 26.5,69.49 0,95.99l-708.23 708.23 1498.36 1498.36 708.22 -708.22c26.5,-26.5 69.49,-26.5 95.99,0 26.5,26.5 26.5,69.49 0,95.99l-708.22 708.22 659.61 659.61c26.5,26.5 26.5,69.49 0,95.99 -26.5,26.5 -69.49,26.5 -95.99,0l-659.61 -659.61 -708.22 708.22c-26.5,26.5 -69.49,26.5 -95.99,0 -26.5,-26.5 -26.5,-69.49 0,-95.99l708.22 -708.22 -1498.36 -1498.36 -708.23 708.23c-26.5,26.5 -69.49,26.5 -95.99,0 -26.5,-26.5 -26.5,-69.49 0,-95.99l708.23 -708.23 -1498.36 -1498.36 -708.23 708.23c-26.5,26.5 -69.49,26.5 -95.99,0 -26.5,-26.5 -26.5,-69.49 0,-95.99l708.23 -708.23 -1498.36 -1498.36 -708.23 708.23c-26.5,26.5 -69.49,26.5 -95.99,0 -26.5,-26.5 -26.5,-69.49 0,-95.99l708.23 -708.23 -1498.36 -1498.35 -556.99 556.99c-26.5,26.5 -69.49,26.5 -95.99,0 -26.5,-26.5 -26.5,-69.49 0,-95.99l556.99 -556.99 -1498.35 -1498.35 -436 435.98c-26.5,26.5 -69.49,26.5 -95.99,0 -26.5,-26.5 -26.5,-69.49 0,-95.99l436 -435.98 -1498.36 -1498.36 -436 435.98c-26.5,26.5 -69.49,26.5 -95.99,0 -26.5,-26.5 -26.5,-69.49 0,-95.99l436 -435.98 -1028.61 -1028.61c-26.5,-26.5 -26.5,-69.49 0,-95.99 26.5,-26.5 69.49,-26.5 95.99,0l1028.61 1028.61 436 -436.01zm-5777.59 -2758.54l1334.07 0c56.24,0 101.83,45.59 101.83,101.83 0,56.24 -45.59,101.83 -101.83,101.83l-1334.07 0 0 582.65c0,56.24 -45.59,101.83 -101.83,101.83 -56.24,0 -101.83,-45.59 -101.83,-101.83l0 -1368.91c0,-56.24 45.59,-101.83 101.83,-101.83 56.24,0 101.83,45.59 101.83,101.83l0 582.59zm1468.43 -2051.08c-56.24,0 -101.83,-45.59 -101.83,-101.83 0,-56.24 45.59,-101.83 101.83,-101.83l1368.91 0c56.24,0 101.83,45.59 101.83,101.83 0,56.24 -45.59,101.83 -101.83,101.83l-582.61 0 0 1334.08c0,56.24 -45.59,101.83 -101.83,101.83 -56.24,0 -101.83,-45.59 -101.83,-101.83l0 -1334.08 -582.63 0zm1024.29 -12569.27l0 1091.84 729.63 0c56.24,0 101.83,45.59 101.83,101.83 0,56.24 -45.59,101.83 -101.83,101.83l-729.63 0 0 297.83 -237.81 977.04 0 776.23 967.44 0c56.24,0 101.83,45.59 101.83,101.83 0,56.24 -45.59,101.83 -101.83,101.83l-967.44 0 0 2051.08 967.44 0c56.24,0 101.83,45.59 101.83,101.83 0,56.24 -45.59,101.83 -101.83,101.83l-967.44 0 0 2051.08 753.57 0c56.24,0 101.83,45.59 101.83,101.83 0,56.24 -45.59,101.83 -101.83,101.83l-753.57 0 0 2051.08 582.43 0c56.24,0 101.83,45.59 101.83,101.83 0,56.24 -45.59,101.83 -101.83,101.83l-582.43 0 0 1396.28c0,56.24 -45.59,101.83 -101.83,101.83 -56.24,0 -101.83,-45.59 -101.83,-101.83l0 -1396.28 -582.81 0c-56.24,0 -101.83,-45.59 -101.83,-101.83 0,-56.24 45.59,-101.83 101.83,-101.83l582.81 0 0 -2051.08 -753.92 0c-56.24,0 -101.83,-45.59 -101.83,-101.83 0,-56.24 45.59,-101.83 101.83,-101.83l753.92 0 0 -2051.08 -967.8 0c-56.24,0 -101.83,-45.59 -101.83,-101.83 0,-56.24 45.59,-101.83 101.83,-101.83l967.8 0 0 -2051.08 -967.8 0c-56.24,0 -101.83,-45.59 -101.83,-101.83 0,-56.24 45.59,-101.83 101.83,-101.83l967.8 0 0 -775.56 -237.98 -977.71 0 -297.83 -729.82 0c-56.24,0 -101.83,-45.59 -101.83,-101.83 0,-56.24 45.59,-101.83 101.83,-101.83l729.82 0 0 -2051.08 -1698.59 0c-56.24,0 -101.83,-45.59 -101.83,-101.83 0,-56.24 45.59,-101.83 101.83,-101.83l1698.59 0 0 -982.87 339.81 0 339.65 0 0 982.87 1698.43 0c56.24,0 101.83,45.59 101.83,101.83 0,56.24 -45.59,101.83 -101.83,101.83l-1698.43 0 0 959.24zm344.67 16875.1c56.24,0 101.83,45.59 101.83,101.83 0,56.24 -45.59,101.83 -101.83,101.83l-1368.91 0c-56.24,0 -101.83,-45.59 -101.83,-101.83 0,-56.24 45.59,-101.83 101.83,-101.83l582.58 0 0 -1334.07c0,-56.24 45.59,-101.83 101.83,-101.83 56.24,0 101.83,45.59 101.83,101.83l0 1334.07 582.66 0zm-1024.29 12569.27l0 -1091.84 -729.63 0c-56.24,0 -101.83,-45.59 -101.83,-101.83 0,-56.24 45.59,-101.83 101.83,-101.83l729.63 0 0 -297.83 237.81 -977.04 0 -776.23 -967.44 0c-56.24,0 -101.83,-45.59 -101.83,-101.83 0,-56.24 45.59,-101.83 101.83,-101.83l967.44 0 0 -2051.08 -967.44 0c-56.24,0 -101.83,-45.59 -101.83,-101.83 0,-56.24 45.59,-101.83 101.83,-101.83l967.44 0 0 -2051.08 -753.57 0c-56.24,0 -101.83,-45.59 -101.83,-101.83 0,-56.24 45.59,-101.83 101.83,-101.83l753.57 0 0 -2051.08 -582.43 0c-56.24,0 -101.83,-45.59 -101.83,-101.83 0,-56.24 45.59,-101.83 101.83,-101.83l582.43 0 0 -1396.28c0,-56.24 45.59,-101.83 101.83,-101.83 56.24,0 101.83,45.59 101.83,101.83l0 1396.28 582.81 0c56.24,0 101.83,45.59 101.83,101.83 0,56.24 -45.59,101.83 -101.83,101.83l-582.81 0 0 2051.08 753.92 0c56.24,0 101.83,45.59 101.83,101.83 0,56.24 -45.59,101.83 -101.83,101.83l-753.92 0 0 2051.08 967.8 0c56.24,0 101.83,45.59 101.83,101.83 0,56.24 -45.59,101.83 -101.83,101.83l-967.8 0 0 2051.08 967.8 0c56.24,0 101.83,45.59 101.83,101.83 0,56.24 -45.59,101.83 -101.83,101.83l-967.8 0 0 775.56 237.98 977.71 0 297.83 729.82 0c56.24,0 101.83,45.59 101.83,101.83 0,56.24 -45.59,101.83 -101.83,101.83l-729.82 0 0 2051.08 1698.59 0c56.24,0 101.83,45.59 101.83,101.83 0,56.24 -45.59,101.83 -101.83,101.83l-1698.59 0 0 982.87 -339.81 0 -339.65 0 0 -982.87 -1698.43 0c-56.24,0 -101.83,-45.59 -101.83,-101.83 0,-56.24 45.59,-101.83 101.83,-101.83l1698.43 0 0 -959.24zm-16637.12 -15061.99l1091.84 0 0 -729.63c0,-56.24 45.59,-101.83 101.83,-101.83 56.24,0 101.83,45.59 101.83,101.83l0 729.63 297.81 0 977.04 237.81 776.23 0 0 -967.44c0,-56.24 45.59,-101.83 101.83,-101.83 56.24,0 101.83,45.59 101.83,101.83l0 967.44 2051.1 0 0 -967.44c0,-56.24 45.59,-101.83 101.83,-101.83 56.24,0 101.83,45.59 101.83,101.83l0 967.44 2051.08 0 0 -967.44c0,-56.24 45.59,-101.83 101.83,-101.83 56.24,0 101.83,45.59 101.83,101.83l0 967.44 2051.08 0 0 -753.57c0,-56.24 45.59,-101.83 101.83,-101.83 56.24,0 101.83,45.59 101.83,101.83l0 753.57 2051.08 0 0 -582.43c0,-56.24 45.59,-101.83 101.83,-101.83 56.24,0 101.83,45.59 101.83,101.83l0 582.43 1396.28 0c56.24,0 101.83,45.59 101.83,101.83 0,56.24 -45.59,101.83 -101.83,101.83l-1396.28 0 0 582.81c0,56.24 -45.59,101.83 -101.83,101.83 -56.24,0 -101.83,-45.59 -101.83,-101.83l0 -582.81 -2051.08 0 0 753.92c0,56.24 -45.59,101.83 -101.83,101.83 -56.24,0 -101.83,-45.59 -101.83,-101.83l0 -753.92 -2051.08 0 0 967.8c0,56.24 -45.59,101.83 -101.83,101.83 -56.24,0 -101.83,-45.59 -101.83,-101.83l0 -967.8 -2051.08 0 0 967.8c0,56.24 -45.59,101.83 -101.83,101.83 -56.24,0 -101.83,-45.59 -101.83,-101.83l0 -967.8 -2051.1 0 0 967.8c0,56.24 -45.59,101.83 -101.83,101.83 -56.24,0 -101.83,-45.59 -101.83,-101.83l0 -967.8 -775.56 0 -977.71 237.98 -297.81 0 0 729.82c0,56.24 -45.59,101.83 -101.83,101.83 -56.24,0 -101.83,-45.59 -101.83,-101.83l0 -729.82 -2051.08 0 0 1698.59c0,56.24 -45.59,101.83 -101.83,101.83 -56.24,0 -101.83,-45.59 -101.83,-101.83l0 -1698.59 -982.87 0 0 -339.81 0 -339.65 982.87 0 0 -1698.43c0,-56.24 45.59,-101.83 101.83,-101.83 56.24,0 101.83,45.59 101.83,101.83l0 1698.43 959.24 0zm19129.85 -344.67c0,-56.24 45.59,-101.83 101.83,-101.83 56.24,0 101.83,45.59 101.83,101.83l0 1368.91c0,56.24 -45.59,101.83 -101.83,101.83 -56.24,0 -101.83,-45.59 -101.83,-101.83l0 -582.59 -1334.08 0c-56.24,0 -101.83,-45.59 -101.83,-101.83 0,-56.24 45.59,-101.83 101.83,-101.83l1334.08 0 0 -582.65zm14824.01 1024.29l-1091.84 0 0 729.63c0,56.24 -45.59,101.83 -101.83,101.83 -56.24,0 -101.83,-45.59 -101.83,-101.83l0 -729.63 -297.83 0 -977.38 -237.9 -775.87 0 0 967.52c0,56.24 -45.59,101.83 -101.83,101.83 -56.24,0 -101.83,-45.59 -101.83,-101.83l0 -967.52 -2051.1 0 0 967.52c0,56.24 -45.59,101.83 -101.83,101.83 -56.24,0 -101.83,-45.59 -101.83,-101.83l0 -967.52 -2051.08 0 0 967.52c0,56.24 -45.59,101.83 -101.83,101.83 -56.24,0 -101.83,-45.59 -101.83,-101.83l0 -967.52 -2051.08 0 0 753.65c0,56.24 -45.59,101.83 -101.83,101.83 -56.24,0 -101.83,-45.59 -101.83,-101.83l0 -753.65 -2051.08 0 0 582.51c0,56.24 -45.59,101.83 -101.83,101.83 -56.24,0 -101.83,-45.59 -101.83,-101.83l0 -582.51 -1396.28 0c-56.24,0 -101.83,-45.59 -101.83,-101.83 0,-56.24 45.59,-101.83 101.83,-101.83l1396.28 0 0 -582.73c0,-56.24 45.59,-101.83 101.83,-101.83 56.24,0 101.83,45.59 101.83,101.83l0 582.73 2051.08 0 0 -753.84c0,-56.24 45.59,-101.83 101.83,-101.83 56.24,0 101.83,45.59 101.83,101.83l0 753.84 2051.08 0 0 -967.71c0,-56.24 45.59,-101.83 101.83,-101.83 56.24,0 101.83,45.59 101.83,101.83l0 967.71 2051.08 0 0 -967.71c0,-56.24 45.59,-101.83 101.83,-101.83 56.24,0 101.83,45.59 101.83,101.83l0 967.71 2051.1 0 0 -967.71c0,-56.24 45.59,-101.83 101.83,-101.83 56.24,0 101.83,45.59 101.83,101.83l0 967.71 775.87 0 977.38 -237.9 297.83 0 0 -729.82c0,-56.24 45.59,-101.83 101.83,-101.83 56.24,0 101.83,45.59 101.83,101.83l0 729.82 2051.08 0 0 -1698.59c0,-56.24 45.59,-101.83 101.83,-101.83 56.24,0 101.83,45.59 101.83,101.83l0 1698.59 982.87 0 0 339.73 0 339.73 -982.87 0 0 1698.43c0,56.24 -45.59,101.83 -101.83,101.83 -56.24,0 -101.83,-45.59 -101.83,-101.83l0 -1698.43 -959.24 0zm-19753.66 -4084.49c39.76,-39.76 104.25,-39.76 144.01,0 39.76,39.76 39.76,104.25 0,144.01l-435.98 435.98 1004.6 1004.62c26.5,26.5 26.5,69.49 0,95.99 -26.5,26.5 -69.49,26.5 -95.99,0l-1004.6 -1004.62 -435.98 435.98c-39.76,39.76 -104.25,39.76 -144.01,0 -39.76,-39.76 -39.76,-104.25 0,-144.01l435.98 -435.98 -1450.35 -1450.35 -435.98 435.98c-39.76,39.76 -104.25,39.76 -144.01,0 -39.76,-39.76 -39.76,-104.25 0,-144.01l435.98 -435.98 -1450.33 -1450.33 -556.97 556.97c-39.76,39.76 -104.25,39.76 -144.01,0 -39.76,-39.76 -39.76,-104.25 0,-144.01l556.97 -556.97 -1450.35 -1450.35 -708.22 708.22c-39.76,39.76 -104.25,39.76 -144.01,0 -39.76,-39.76 -39.76,-104.25 0,-144.01l708.22 -708.22 -1450.33 -1450.33 -708.23 708.23c-39.76,39.76 -104.25,39.76 -144.01,0 -39.76,-39.76 -39.76,-104.25 0,-144.01l708.23 -708.23 -1450.36 -1450.36 -708.22 708.22c-39.76,39.76 -104.25,39.76 -144.01,0 -39.76,-39.76 -39.76,-104.25 0,-144.01l708.22 -708.22 -1450.33 -1450.33 -708.23 708.23c-39.76,39.76 -104.25,39.76 -144.01,0 -39.76,-39.76 -39.76,-104.25 0,-144.01l708.23 -708.23 -635.6 -635.6c-26.5,-26.5 -26.5,-69.49 0,-95.99 26.5,-26.5 69.49,-26.5 95.99,0l635.6 635.6 708.23 -708.23c39.76,-39.76 104.25,-39.76 144.01,0 39.76,39.76 39.76,104.25 0,144.01l-708.23 708.23 1450.33 1450.33 708.22 -708.22c39.76,-39.76 104.25,-39.76 144.01,0 39.76,39.76 39.76,104.25 0,144.01l-708.22 708.22 1450.36 1450.36 708.23 -708.23c39.76,-39.76 104.25,-39.76 144.01,0 39.76,39.76 39.76,104.25 0,144.01l-708.23 708.23 1450.33 1450.33 708.22 -708.22c39.76,-39.76 104.25,-39.76 144.01,0 39.76,39.76 39.76,104.25 0,144.01l-708.22 708.22 1450.35 1450.35 556.97 -556.97c39.76,-39.76 104.25,-39.76 144.01,0 39.76,39.76 39.76,104.25 0,144.01l-556.97 556.97 1450.33 1450.33 435.98 -435.98c39.76,-39.76 104.25,-39.76 144.01,0 39.76,39.76 39.76,104.25 0,144.01l-435.98 435.98 1450.35 1450.35 435.98 -435.98zm6521.38 967.96c39.76,39.76 39.76,104.25 0,144.01 -39.76,39.76 -104.25,39.76 -144.01,0l-435.98 -435.98 -1004.6 1004.6c-26.5,26.5 -69.49,26.5 -95.99,0 -26.5,-26.5 -26.5,-69.49 0,-95.99l1004.6 -1004.6 -435.98 -435.98c-39.76,-39.76 -39.76,-104.25 0,-144.01 39.76,-39.76 104.25,-39.76 144.01,0l435.98 435.98 1450.35 -1450.35 -435.98 -435.98c-39.76,-39.76 -39.76,-104.25 0,-144.01 39.76,-39.76 104.25,-39.76 144.01,0l435.98 435.98 1450.35 -1450.33 -556.97 -556.97c-39.76,-39.76 -39.76,-104.25 0,-144.01 39.76,-39.76 104.25,-39.76 144.01,0l556.97 556.97 1450.35 -1450.35 -708.22 -708.22c-39.76,-39.76 -39.76,-104.25 0,-144.01 39.76,-39.76 104.25,-39.76 144.01,0l708.22 708.22 1450.33 -1450.33 -708.23 -708.23c-39.76,-39.76 -39.76,-104.25 0,-144.01 39.76,-39.76 104.25,-39.76 144.01,0l708.23 708.23 1450.36 -1450.36 -708.22 -708.22c-39.76,-39.76 -39.76,-104.25 0,-144.01 39.76,-39.76 104.25,-39.76 144.01,0l708.22 708.22 1450.33 -1450.33 -708.23 -708.23c-39.76,-39.76 -39.76,-104.25 0,-144.01 39.76,-39.76 104.25,-39.76 144.01,0l708.23 708.23 635.6 -635.6c26.5,-26.5 69.49,-26.5 95.99,0 26.5,26.5 26.5,69.49 0,95.99l-635.6 635.6 708.23 708.23c39.76,39.76 39.76,104.25 0,144.01 -39.76,39.76 -104.25,39.76 -144.01,0l-708.23 -708.23 -1450.33 1450.33 708.22 708.22c39.76,39.76 39.76,104.25 0,144.01 -39.76,39.76 -104.25,39.76 -144.01,0l-708.22 -708.22 -1450.36 1450.36 708.23 708.23c39.76,39.76 39.76,104.25 0,144.01 -39.76,39.76 -104.25,39.76 -144.01,0l-708.23 -708.23 -1450.33 1450.33 708.22 708.22c39.76,39.76 39.76,104.25 0,144.01 -39.76,39.76 -104.25,39.76 -144.01,0l-708.22 -708.22 -1450.35 1450.35 556.97 556.97c39.76,39.76 39.76,104.25 0,144.01 -39.76,39.76 -104.25,39.76 -144.01,0l-556.97 -556.97 -1450.35 1450.33 435.98 435.98c39.76,39.76 39.76,104.25 0,144.01 -39.76,39.76 -104.25,39.76 -144.01,0l-435.98 -435.98 -1450.35 1450.35 435.98 435.98zm-6401.37 6401.41c26.5,26.5 26.5,69.49 0,95.99 -26.5,26.5 -69.49,26.5 -95.99,0l-436 -436 -1498.36 1498.36 436 436c26.5,26.5 26.5,69.49 0,95.99 -26.5,26.5 -69.49,26.5 -95.99,0l-436 -436 -1498.36 1498.36 556.99 556.99c26.5,26.5 26.5,69.49 0,95.99 -26.5,26.5 -69.49,26.5 -95.99,0l-556.99 -556.99 -1498.35 1498.35 708.23 708.23c26.5,26.5 26.5,69.49 0,95.99 -26.5,26.5 -69.49,26.5 -95.99,0l-708.23 -708.23 -1498.36 1498.36 708.23 708.23c26.5,26.5 26.5,69.49 0,95.99 -26.5,26.5 -69.49,26.5 -95.99,0l-708.23 -708.23 -1498.36 1498.36 708.23 708.23c26.5,26.5 26.5,69.49 0,95.99 -26.5,26.5 -69.49,26.5 -95.99,0l-708.23 -708.23 -1498.36 1498.36 708.22 708.22c26.5,26.5 26.5,69.49 0,95.99 -26.5,26.5 -69.49,26.5 -95.99,0l-708.22 -708.22 -659.61 659.61c-26.5,26.5 -69.49,26.5 -95.99,0 -26.5,-26.5 -26.5,-69.49 0,-95.99l659.61 -659.61 -708.22 -708.22c-26.5,-26.5 -26.5,-69.49 0,-95.99 26.5,-26.5 69.49,-26.5 95.99,0l708.22 708.22 1498.36 -1498.36 -708.23 -708.23c-26.5,-26.5 -26.5,-69.49 0,-95.99 26.5,-26.5 69.49,-26.5 95.99,0l708.23 708.23 1498.36 -1498.36 -708.23 -708.23c-26.5,-26.5 -26.5,-69.49 0,-95.99 26.5,-26.5 69.49,-26.5 95.99,0l708.23 708.23 1498.36 -1498.36 -708.23 -708.23c-26.5,-26.5 -26.5,-69.49 0,-95.99 26.5,-26.5 69.49,-26.5 95.99,0l708.23 708.23 1498.35 -1498.35 -556.99 -556.99c-26.5,-26.5 -26.5,-69.49 0,-95.99 26.5,-26.5 69.49,-26.5 95.99,0l556.99 556.99 1498.36 -1498.36 -436 -436c-26.5,-26.5 -26.5,-69.49 0,-95.99 26.5,-26.5 69.49,-26.5 95.99,0l436 436 1498.36 -1498.36 -436 -436c-26.5,-26.5 -26.5,-69.49 0,-95.99 26.5,-26.5 69.49,-26.5 95.99,0l436 436 1028.6 -1028.61c26.5,-26.5 69.49,-26.5 95.99,0 26.5,26.5 26.5,69.49 0,95.99l-1028.6 1028.61 436 436z"/>
 </g>
</svg>
