<?xml version="1.0" encoding="UTF-8"?>
<!DOCTYPE svg PUBLIC "-//W3C//DTD SVG 1.1//EN" "http://www.w3.org/Graphics/SVG/1.1/DTD/svg11.dtd">
<!-- Creator: CorelDRAW -->
<svg xmlns="http://www.w3.org/2000/svg" xml:space="preserve" width="35.3836mm" height="35.3836mm" version="1.1" style="shape-rendering:geometricPrecision; text-rendering:geometricPrecision; image-rendering:optimizeQuality; fill-rule:evenodd; clip-rule:evenodd"
viewBox="0 0 155.85 155.85"
 xmlns:xlink="http://www.w3.org/1999/xlink"
 xmlns:xodm="http://www.corel.com/coreldraw/odm/2003">
 <defs>
  <style type="text/css">
   <![CDATA[
    .fil0 {fill:lime;fill-rule:nonzero}
   ]]>
  </style>
 </defs>
 <g id="Layer_x0020_1">
  <metadata id="CorelCorpID_0Corel-Layer"/>
  <path class="fil0" d="M14 149.63c-2.15,2.15 -5.64,2.15 -7.79,0 -2.15,-2.15 -2.15,-5.64 0,-7.79l12.85 -12.85c-11.88,-13.68 -19.07,-31.53 -19.07,-51.07 0,-19.54 7.19,-37.39 19.07,-51.07l-12.85 -12.85c-2.15,-2.15 -2.15,-5.64 0,-7.79 2.15,-2.15 5.64,-2.15 7.79,0l12.85 12.85c13.68,-11.88 31.53,-19.07 51.07,-19.07 19.54,0 37.39,7.19 51.07,19.07l12.85 -12.85c2.15,-2.15 5.64,-2.15 7.79,0 2.15,2.15 2.15,5.64 0,7.79l-12.85 12.85c11.88,13.68 19.07,31.53 19.07,51.07 0,19.54 -7.19,37.39 -19.07,51.07l12.85 12.85c2.15,2.15 2.15,5.64 0,7.79 -2.15,2.15 -5.64,2.15 -7.79,0l-12.85 -12.85c-13.68,11.88 -31.53,19.07 -51.07,19.07 -19.54,0 -37.39,-7.19 -51.07,-19.07l-12.85 12.85zm12.87 -28.44l22.39 -22.39c2.15,-2.15 5.64,-2.15 7.79,0 2.15,2.15 2.15,5.64 0,7.79l-22.39 22.39c11.66,9.9 26.77,15.87 43.26,15.87 16.5,0 31.6,-5.97 43.26,-15.86l-22.39 -22.39c-2.15,-2.15 -2.15,-5.64 0,-7.79 2.15,-2.15 5.64,-2.15 7.79,0l22.39 22.39c9.9,-11.66 15.87,-26.77 15.87,-43.26 0,-16.5 -5.97,-31.6 -15.87,-43.26l-22.39 22.39c-2.15,2.15 -5.64,2.15 -7.79,0 -2.15,-2.15 -2.15,-5.64 0,-7.79l22.39 -22.39c-11.66,-9.89 -26.77,-15.86 -43.26,-15.86 -16.5,0 -31.6,5.97 -43.26,15.87l22.39 22.39c2.15,2.15 2.15,5.64 0,7.79 -2.15,2.15 -5.64,2.15 -7.79,0l-22.39 -22.39c-9.89,11.66 -15.86,26.77 -15.86,43.26 0,16.5 5.97,31.6 15.86,43.26z"/>
 </g>
</svg>
