<?xml version="1.0" encoding="UTF-8"?>
<!DOCTYPE svg PUBLIC "-//W3C//DTD SVG 1.1//EN" "http://www.w3.org/Graphics/SVG/1.1/DTD/svg11.dtd">
<!-- Creator: CorelDRAW -->
<svg xmlns="http://www.w3.org/2000/svg" xml:space="preserve" width="107.06mm" height="28.6835mm" version="1.1" style="shape-rendering:geometricPrecision; text-rendering:geometricPrecision; image-rendering:optimizeQuality; fill-rule:evenodd; clip-rule:evenodd"
viewBox="0 0 67.004 17.952"
 xmlns:xlink="http://www.w3.org/1999/xlink"
 xmlns:xodm="http://www.corel.com/coreldraw/odm/2003">
 <defs>
  <style type="text/css">
   <![CDATA[
    .fil0 {fill:#2B2A29}
   ]]>
  </style>
 </defs>
 <g id="Layer_x0020_1">
  <metadata id="CorelCorpID_0Corel-Layer"/>
  <g>
   <path class="fil0" d="M1.999 8.976c0.783,0.43 1.527,0.898 2.276,1.369 2.556,1.608 5.182,3.26 9.477,3.26l26.986 0 -0.491 -0.402 -1.913 -1.566 2.472 0 22.009 0 0 -0.626 0.883 0 0.059 0 0 -4.069 -0.059 0 -0.883 0 0 -0.626 -22.009 0 -2.472 0 1.913 -1.566 0.491 -0.402 -26.986 0c-4.295,0 -6.922,1.652 -9.477,3.26 -0.749,0.471 -1.492,0.939 -2.276,1.369zm-1.999 0c4.33,1.837 7.112,5.512 13.752,5.512l29.459 0 -2.404 -1.968 22.52 0 0.372 0.681 0 -1.306 0.942 0 0 -5.835 -0.942 0 0 -1.306 -0.372 0.681 -22.52 0 2.404 -1.968 -29.459 0c-6.64,0 -9.421,3.674 -13.752,5.512z"/>
  </g>
  <g>
   <path class="fil0" d="M63.623 6.262l-25.199 0 7.568 -6.262 21.012 0 -3.381 6.262zm-22.748 -0.883l22.223 0 2.428 -4.496 -19.218 0 -5.433 4.496z"/>
  </g>
  <g>
   <path class="fil0" d="M63.094 12.532l-22.261 0 5.452 4.536 19.245 0 -2.436 -4.536zm0.526 -0.883l-25.224 0 7.575 6.303 21.033 0 -3.385 -6.303z"/>
  </g>
 </g>
</svg>
