<?xml version="1.0" encoding="UTF-8"?>
<!DOCTYPE svg PUBLIC "-//W3C//DTD SVG 1.1//EN" "http://www.w3.org/Graphics/SVG/1.1/DTD/svg11.dtd">
<!-- Creator: CorelDRAW -->
<svg xmlns="http://www.w3.org/2000/svg" xml:space="preserve" width="103.575mm" height="28.8983mm" version="1.1" style="shape-rendering:geometricPrecision; text-rendering:geometricPrecision; image-rendering:optimizeQuality; fill-rule:evenodd; clip-rule:evenodd"
viewBox="0 0 62.778 17.516"
 xmlns:xlink="http://www.w3.org/1999/xlink"
 xmlns:xodm="http://www.corel.com/coreldraw/odm/2003">
 <defs>
  <style type="text/css">
   <![CDATA[
    .fil0 {fill:black}
    .fil1 {fill:#078003}
   ]]>
  </style>
 </defs>
 <g id="Layer_x0020_1">
  <metadata id="CorelCorpID_0Corel-Layer"/>
  <path class="fil0" d="M-0 8.803c0,-4.416 6.866,-8.03 18.829,-8.119 10.214,-0.075 13.988,2.718 27.28,4.229l15.829 -4.891c0.441,-0.136 0.84,0.378 0.84,0.84l0 6.349c0,0.462 -0.378,0.84 -0.84,0.84l-3.911 0c0.053,0.242 0.081,0.493 0.081,0.752 0,0.227 -0.022,0.448 -0.063,0.662l3.892 0c0.462,0 0.84,0.378 0.84,0.84l0 6.349c0,0.462 -0.398,0.976 -0.84,0.84l-15.616 -4.825c-13.466,1.505 -17.225,4.329 -27.494,4.253 -11.964,-0.088 -18.829,-3.703 -18.829,-8.119z"/>
  <path class="fil1" d="M61.566 1.406l0 5.432 -3.538 0c-0.38,0 -0.707,0.157 -0.945,0.453 -0.238,0.296 -0.321,0.649 -0.239,1.02 0.036,0.162 0.053,0.327 0.053,0.492 0,0.145 -0.014,0.291 -0.041,0.434 -0.07,0.367 0.018,0.712 0.256,1.001 0.238,0.288 0.56,0.44 0.934,0.44l3.519 0 0 5.432 -14.885 -4.599c-0.167,-0.052 -0.319,-0.066 -0.492,-0.046 -2.899,0.324 -5.772,0.761 -8.633,1.326 -2.161,0.427 -4.298,0.93 -6.446,1.416 -1.894,0.429 -3.787,0.828 -5.712,1.094 -2.181,0.302 -4.357,0.426 -6.559,0.41 -4.274,-0.032 -9.472,-0.531 -13.406,-2.327 -1.773,-0.81 -4.22,-2.354 -4.22,-4.579 0,-2.225 2.447,-3.77 4.22,-4.579 3.934,-1.797 9.132,-2.295 13.406,-2.327 2.191,-0.016 4.357,0.107 6.528,0.405 1.915,0.264 3.797,0.659 5.681,1.085 2.13,0.482 4.249,0.982 6.392,1.407 2.828,0.562 5.668,0.999 8.533,1.324 0.174,0.02 0.327,0.006 0.495,-0.046l15.099 -4.665z"/>
  <path class="fil0" d="M54.527 7.961l-19.767 0c-0.438,0 -0.797,0.359 -0.797,0.797l0 0c0,0.438 0.359,0.797 0.797,0.797l19.767 0c0.438,0 0.797,-0.359 0.797,-0.797l0 -0c0,-0.438 -0.359,-0.797 -0.797,-0.797z"/>
 </g>
</svg>
