<?xml version="1.0" encoding="UTF-8"?>
<!DOCTYPE svg PUBLIC "-//W3C//DTD SVG 1.1//EN" "http://www.w3.org/Graphics/SVG/1.1/DTD/svg11.dtd">
<!-- Creator: CorelDRAW -->
<svg xmlns="http://www.w3.org/2000/svg" xml:space="preserve" width="163.335mm" height="163.335mm" version="1.1" style="shape-rendering:geometricPrecision; text-rendering:geometricPrecision; image-rendering:optimizeQuality; fill-rule:evenodd; clip-rule:evenodd"
viewBox="0 0 1633.354 1633.354"
 xmlns:xlink="http://www.w3.org/1999/xlink"
 xmlns:xodm="http://www.corel.com/coreldraw/odm/2003">
 <defs>
  <style type="text/css">
   <![CDATA[
    .fil0 {fill:url(#id0)}
    .fil1 {fill:url(#id1)}
   ]]>
  </style>
  <radialGradient id="id0" gradientUnits="userSpaceOnUse" gradientTransform="matrix(1.73959 1.64872 -1.64872 1.7396 301 -554)" cx="211.623" cy="277.722" r="281.326" fx="211.623" fy="277.722">
   <stop offset="0" style="stop-opacity:1; stop-color:#301901"/>
   <stop offset="1" style="stop-opacity:1; stop-color:black"/>
  </radialGradient>
  <radialGradient id="id1" gradientUnits="userSpaceOnUse" gradientTransform="matrix(1.33374 1.50775 -1.50775 1.33374 477 -879)" cx="489.293" cy="424.725" r="718.676" fx="489.293" fy="424.725">
   <stop offset="0" style="stop-opacity:1; stop-color:#F7CC80"/>
   <stop offset="0.631373" style="stop-opacity:1; stop-color:#C5984E"/>
   <stop offset="1" style="stop-opacity:1; stop-color:#93641C"/>
  </radialGradient>
 </defs>
 <g id="Layer_x0020_1">
  <metadata id="CorelCorpID_0Corel-Layer"/>
  <rect class="fil0" x="-0.714" y="0.052" width="1633.354" height="1633.354" rx="426.456" ry="426.456"/>
  <path class="fil1" d="M425.743 0.053l780.442 0c234.552,0 426.456,191.904 426.456,426.456l0 780.442c0,234.552 -191.904,426.456 -426.456,426.456l-780.442 0c-234.552,0 -426.456,-191.904 -426.456,-426.456l0 -780.442c0,-234.552 191.904,-426.456 426.456,-426.456zm856.434 982.374l55.228 15.711c10.589,3.012 16.787,14.139 13.775,24.727l-9.56 33.605c-5.288,-1.459 -10.574,-2.913 -15.857,-4.364l-4.708 -1.293 8.421 -29.598c0.383,-1.347 -0.404,-2.762 -1.751,-3.145l-47.809 -13.601c-1.346,-0.383 -2.76,0.406 -3.143,1.753l-8.588 30.186 -9.947 -2.684c-3.456,-0.932 -7.016,-1.877 -10.659,-2.832l1.477 -5.192 -10.5 2.856c-15.877,-4.058 -33.024,-8.169 -50.239,-11.855l68.608 -18.662 0.523 -1.838c3.012,-10.589 14.14,-16.787 24.729,-13.774zm310.464 213.475c-4.886,-1.075 -9.402,-2.06 -13.463,-2.911 -32.178,-6.748 -61.924,-12.574 -83.721,-39.651 -5.546,-6.889 2.456,-25.446 -20.914,-39.125 1.059,-2.84 2.117,-5.681 3.177,-8.521 38.321,11.138 76.668,22.375 114.921,33.772l0 -712.958c0,-212.551 -173.904,-386.455 -386.455,-386.455l-780.444 0c-212.551,0 -386.455,173.904 -386.455,386.455l0 270.903c34.289,9.332 68.567,18.8 102.788,28.324 -0.594,2.973 -1.19,5.946 -1.783,8.918 -27.072,-0.67 -30.035,19.32 -38.377,22.258 -22.182,7.814 -42.337,5.441 -62.628,-0.379l0 450.419c0,212.551 173.904,386.455 386.455,386.455l361.13 0 -0.001 -0.001c-26.08,-23.876 -38.017,-61.258 -27.684,-97.582 14.573,-51.228 67.917,-80.944 119.146,-66.371 51.229,14.574 80.944,67.918 66.371,119.145 -5.087,17.882 -14.9,33.137 -27.696,44.808l-0.001 0.001 289.179 0c212.551,0 386.455,-173.904 386.455,-386.455l0 -11.049zm-690.408 397.504l0 -0.001c14.407,-10.163 25.834,-24.734 32.005,-42.455l-21.616 -6.15c-11.051,29.782 -42.269,47.172 -73.407,40.892l-2.194 7.713 0 0.001 65.212 0zm-75.87 0l0 -0.001 2.992 -10.518c-29.781,-11.051 -47.17,-42.268 -40.891,-73.406l-21.615 -6.15c-7.79,34.964 6.736,70.258 34.77,90.074l-0.001 0.001 24.745 0zm34.128 -101.234c9.367,2.665 16.514,9.333 20.11,17.621 -7.633,6.038 -16.601,18.608 -25.206,20.117 12.256,3.1 20.847,-6.954 27.516,-11.805 0.547,4.114 0.281,8.404 -0.927,12.65 -4.72,16.591 -21.994,26.215 -38.584,21.495 -16.591,-4.719 -26.213,-21.995 -21.493,-38.585 1.482,-5.21 4.203,-9.734 7.754,-13.341 4.371,6.824 7.297,19.516 18.711,27.434 -4.895,-8.113 1.845,-26.541 1.53,-36.717 3.475,-0.228 7.048,0.123 10.589,1.131zm14.044 -30.638c29.781,11.051 47.17,42.267 40.892,73.407l21.615 6.149c9.598,-43.078 -14.68,-86.659 -56.358,-101.171l-6.149 21.615zm-83.266 38.087c11.052,-29.781 42.267,-47.17 73.406,-40.891l6.149 -21.616c-43.077,-9.598 -86.657,14.678 -101.17,56.358l21.615 6.149zm-111.452 -126.642c51.229,14.574 80.943,67.918 66.37,119.145 -14.574,51.23 -67.916,80.946 -119.146,66.373 -51.229,-14.574 -80.943,-67.918 -66.37,-119.147 14.573,-51.228 67.916,-80.944 119.146,-66.371zm-17.843 62.72c9.369,2.665 16.515,9.333 20.11,17.621 -7.632,6.038 -16.6,18.608 -25.205,20.117 12.257,3.1 20.847,-6.954 27.515,-11.805 0.547,4.114 0.281,8.404 -0.927,12.65 -4.719,16.591 -21.994,26.214 -38.583,21.495 -16.59,-4.719 -26.213,-21.994 -21.493,-38.585 1.482,-5.21 4.204,-9.733 7.752,-13.341 4.373,6.824 7.3,19.516 18.713,27.434 -4.895,-8.113 1.845,-26.541 1.53,-36.718 3.475,-0.228 7.047,0.124 10.588,1.132zm14.044 -30.638c29.782,11.051 47.171,42.267 40.892,73.406l21.616 6.15c9.597,-43.078 -14.68,-86.659 -56.359,-101.171l-6.149 21.615zm38.088 83.266c-11.051,29.782 -42.269,47.172 -73.408,40.892l-6.148 21.615c43.077,9.598 86.657,-14.678 101.171,-56.358l-21.615 -6.149zm-83.267 38.087c-29.781,-11.051 -47.171,-42.269 -40.891,-73.407l-21.616 -6.149c-9.597,43.077 14.679,86.658 56.358,101.171l6.149 -21.615zm-38.086 -83.266c11.051,-29.781 42.267,-47.17 73.406,-40.892l6.149 -21.615c-43.076,-9.598 -86.657,14.678 -101.171,56.358l21.616 6.149zm-118.367 -128.609c51.229,14.574 80.944,67.918 66.371,119.145 -14.574,51.23 -67.918,80.946 -119.146,66.373 -51.229,-14.574 -80.944,-67.918 -66.371,-119.148 14.573,-51.227 67.917,-80.943 119.146,-66.37zm-17.842 62.72c9.367,2.665 16.514,9.332 20.11,17.621 -7.633,6.038 -16.601,18.607 -25.207,20.116 12.257,3.1 20.848,-6.954 27.517,-11.804 0.547,4.114 0.281,8.404 -0.927,12.65 -4.72,16.591 -21.994,26.215 -38.584,21.495 -16.591,-4.72 -26.214,-21.995 -21.494,-38.586 1.482,-5.209 4.204,-9.733 7.754,-13.34 4.372,6.823 7.299,19.516 18.713,27.434 -4.896,-8.113 1.843,-26.541 1.53,-36.718 3.475,-0.227 7.047,0.124 10.588,1.132zm14.043 -30.638c29.782,11.051 47.171,42.267 40.892,73.406l21.617 6.15c9.597,-43.078 -14.681,-86.659 -56.36,-101.171l-6.149 21.615zm38.087 83.266c-11.05,29.782 -42.268,47.172 -73.407,40.892l-6.149 21.614c43.078,9.599 86.659,-14.677 101.173,-56.357l-21.617 -6.149zm-83.266 38.087c-29.781,-11.051 -47.17,-42.269 -40.892,-73.407l-21.614 -6.149c-9.598,43.077 14.678,86.658 56.358,101.171l6.148 -21.615zm-38.087 -83.267c11.053,-29.78 42.268,-47.17 73.407,-40.891l6.149 -21.615c-43.076,-9.598 -86.657,14.678 -101.17,56.358l21.614 6.148zm979.178 -130.171l-13.047 101.291 6.376 1.813 25.612 -97.716 -18.941 -5.388zm26.818 -118.877l27.905 7.939c1.66,0.472 2.632,2.215 2.16,3.874l-21.791 76.601c-0.473,1.66 -2.217,2.63 -3.876,2.158l-27.906 -7.938c-1.659,-0.472 -2.63,-2.215 -2.158,-3.875l21.791 -76.601c0.472,-1.659 2.215,-2.63 3.875,-2.158zm-1275.447 -236.328l-15.07 100.715 6.375 1.814 27.634 -97.141 -18.939 -5.388zm28.166 -118.493l27.906 7.939c1.659,0.472 2.63,2.215 2.158,3.874l-21.791 76.601c-0.472,1.66 -2.215,2.63 -3.875,2.158l-27.905 -7.939c-1.66,-0.472 -2.632,-2.214 -2.16,-3.874l21.791 -76.601c0.472,-1.659 2.216,-2.63 3.876,-2.158zm83.364 -30.261c44.758,13.009 89.552,26.153 134.189,39.529 45.661,13.681 108.761,34.92 149.039,56.844 6.56,3.57 7.384,9.119 0.723,11.209 -42.671,13.391 -138.863,-11.137 -182.492,-20.285 -32.178,-6.747 -61.926,-12.574 -83.723,-39.651 -5.546,-6.889 2.456,-25.445 -20.913,-39.125 1.059,-2.839 2.117,-5.68 3.177,-8.521zm-13.25 10.203l-68.18 -19.395 8.143 -28.624c4.478,-15.743 21.023,-24.96 36.767,-20.481l10.931 3.11c15.744,4.478 24.96,21.023 20.481,36.767l-8.142 28.623zm253.21 270.477l-252.082 -172.339 6.409 -22.529 265.451 171.148c-7.634,7.373 -14.257,15.341 -19.778,23.72zm-266.546 -128.061l252.359 221.562c0.448,1.3 0.927,2.596 1.435,3.888 10.024,25.496 34.896,43.906 65.556,58.187 -15.485,39.192 -15.71,67.834 -2.415,88.41 24.679,38.2 87.709,58.066 164.745,81.294 77.727,20.798 141.776,37.083 182.867,17.593 22.134,-10.497 37.019,-34.968 44.482,-76.443 33.585,3.996 64.424,1.433 86.367,-14.969 1.111,-0.83 2.201,-1.68 3.268,-2.551l331.19 -55.555c0.771,7.758 5.043,14.876 11.606,19.183l-16.74 129.789 52.019 14.798 51.993 -120.097c10.623,-0.699 20.201,-7.964 23.27,-18.752l27.418 -96.38c3.898,-13.701 -4.122,-28.1 -17.824,-31.998l-71.469 -20.331c-13.702,-3.898 -28.1,4.124 -31.998,17.825l-0.676 2.378 -339.689 6.238c-1.842,-3.482 -3.821,-6.94 -5.949,-10.364l133.117 -2.445 53.221 -22.032c-16.266,-6.02 -33.491,-12.781 -49.824,-20.152l-137.459 43.119 -0.21 -0.337c-4.67,-7.306 -10.024,-14.279 -15.931,-20.941l127.502 -34.681c-10.533,-5.713 -20.085,-11.698 -27.986,-17.909l-119.885 32.609c-53.564,-46.215 -133.236,-74.363 -186.849,-89.615 -53.614,-15.252 -136.172,-33.254 -206.041,-22.152l-84.77 -90.829c-9.988,1.122 -21.259,1.183 -33.222,0.497l90.157 96.6c-8.53,2.555 -16.752,5.665 -24.568,9.42l-0.357 0.175 -94.18 -109.015c-17.769,-2.33 -35.972,-5.648 -52.971,-9.09l33.655 46.746 111.899 72.146c-3.613,1.791 -7.114,3.69 -10.514,5.681l-285.543 -184.102 0.677 -2.378c3.897,-13.701 -4.123,-28.1 -17.824,-31.998l-71.47 -20.331c-13.701,-3.898 -28.099,4.124 -31.997,17.825l-27.418 96.38c-3.069,10.788 1.252,22.006 9.917,28.192l-19.007 129.481 52.019 14.798 54.082 -119.165c7.847,-0.208 15.225,-4.012 19.965,-10.202zm-39.57 5.843l-45.204 98.023 -18.131 -4.924 15.662 -106.661 47.673 13.562zm40.95 -117.028l-61.865 -17.6c-1.743,-0.495 -3.574,0.525 -4.07,2.267l-24.337 85.551c-0.496,1.743 0.525,3.573 2.267,4.069l61.866 17.599c1.743,0.496 3.572,-0.523 4.068,-2.266l24.337 -85.551c0.496,-1.743 -0.523,-3.574 -2.266,-4.069zm1186.2 288.841c-44.903,-12.497 -89.908,-24.899 -134.902,-37.022 -46.025,-12.4 -110.856,-27.555 -156.643,-30.114 -7.456,-0.418 -11.078,3.867 -6.514,9.15 29.233,33.846 123.932,63.622 165.843,78.808 30.912,11.2 59.272,21.904 92.058,10.354 8.341,-2.938 11.304,-22.928 38.374,-22.259 0.595,-2.971 1.19,-5.944 1.784,-8.917zm5.896 15.65l68.18 19.395 8.143 -28.623c4.478,-15.744 -4.738,-32.289 -20.481,-36.767l-10.932 -3.11c-15.744,-4.479 -32.288,4.738 -36.767,20.481l-8.143 28.624zm-357.661 96.699l305.046 -13.85 6.409 -22.529 -315.788 5.799c2.611,10.288 4.048,20.549 4.333,30.58zm324.608 57.207l-13.159 107.139 18.008 5.357 42.825 -98.934 -47.674 -13.562zm26.78 -121.059l61.866 17.599c1.743,0.496 2.763,2.327 2.267,4.069l-24.337 85.551c-0.496,1.743 -2.327,2.762 -4.07,2.266l-61.865 -17.599c-1.743,-0.496 -2.762,-2.326 -2.266,-4.068l24.337 -85.551c0.496,-1.743 2.326,-2.763 4.068,-2.267zm-750.622 99.975l8.106 84.395c28.903,13.762 59.179,22.323 90.985,25.883l51.314 -67.491c-27.86,-7.28 -53.9,-14.732 -75.361,-20.837 -21.462,-6.105 -47.524,-13.476 -75.044,-21.95zm-83.211 -100.732c123.306,-4.794 243.99,31.961 362.009,110.853 -126.076,-51.687 -247.06,-89.495 -362.009,-110.853zm167.865 88.898c29.019,8.256 100.567,26.898 157.059,38.189 52.273,10.448 89.543,6.154 112.299,-10.856 3.648,-2.727 5.665,-6.04 6.274,-9.831 6.033,-37.508 -3.687,-92.42 -44.188,-129.698 -56.03,-51.572 -141.266,-77.459 -174.779,-86.993 -33.514,-9.533 -119.612,-32.387 -194.398,-18.029 -54.057,10.378 -91.226,51.952 -105.839,87.019 -1.477,3.544 -1.506,7.423 0.161,11.662 10.395,26.44 39.824,49.708 89.769,68.339 53.977,20.135 124.624,41.943 153.642,50.198zm558.418 -208.144l21.565 6.135c1.283,0.365 2.032,1.712 1.668,2.995l-7.426 26.104c-8.782,-2.395 -17.554,-4.78 -26.317,-7.151l7.514 -26.415c0.365,-1.282 1.713,-2.033 2.996,-1.668zm-963.87 -274.198l21.564 6.135c1.283,0.365 2.032,1.712 1.667,2.994l-7.45 26.189c-8.703,-2.583 -17.42,-5.161 -26.148,-7.735l7.372 -25.914c0.365,-1.282 1.713,-2.033 2.995,-1.669zm-3.062 -42.581c-34.7,-9.658 -69.479,-19.241 -104.25,-28.61 -35.566,-9.583 -85.666,-21.294 -121.05,-23.273 -5.762,-0.321 -8.56,2.99 -5.033,7.073 13.412,15.527 44.655,29.947 74.607,41.557 1.688,-1.326 3.477,-2.517 5.348,-3.559 9.011,-5.021 19.935,-6.62 30.599,-3.586l10.931 3.11c10.662,3.033 19.111,10.143 24.132,19.156 2.016,3.62 3.48,7.551 4.315,11.65 16.008,4.7 31.872,6.737 49.367,0.574 6.447,-2.271 8.736,-17.719 29.656,-17.201 0.459,-2.297 0.919,-4.594 1.378,-6.891zm67.483 19.197c34.589,10.053 69.203,20.211 103.699,30.547 35.286,10.572 84.049,26.985 115.174,43.927 5.068,2.76 5.705,7.048 0.558,8.663 -32.975,10.348 -107.312,-8.607 -141.026,-15.676 -24.866,-5.213 -47.854,-9.717 -64.699,-30.642 -4.285,-5.323 1.899,-19.663 -16.162,-30.235 0.82,-2.194 1.638,-4.389 2.456,-6.584zm-10.239 7.885l-52.688 -14.988 6.292 -22.121c3.461,-12.166 16.247,-19.288 28.413,-15.827l8.448 2.403c12.167,3.461 19.289,16.247 15.828,28.413l-6.293 22.12zm4.349 63.62l1.476 -5.191 7.425 7.955c15.635,4.906 32.379,10.436 48.957,16.363l-48.513 -51.979 0.523 -1.839c3.013,-10.588 -3.187,-21.715 -13.774,-24.727l-55.23 -15.712c-10.589,-3.012 -21.716,3.186 -24.728,13.775l-9.56 33.605c5.265,1.543 10.525,3.088 15.78,4.635l4.684 1.379 8.42 -29.598c0.383,-1.347 1.797,-2.136 3.143,-1.753l47.809 13.6c1.347,0.384 2.134,1.799 1.751,3.145l-8.588 30.187 9.871 2.953c3.429,1.027 6.954,2.097 10.554,3.202zm970.563 202.921c34.588,10.053 69.203,20.211 103.699,30.547 35.285,10.572 84.047,26.985 115.174,43.927 5.068,2.76 5.705,7.048 0.558,8.663 -19.578,6.143 -53.732,1.959 -85.311,-3.935 -0.737,-2.016 -1.631,-3.97 -2.674,-5.841 -5.019,-9.012 -13.467,-16.122 -24.129,-19.155l-10.931 -3.11c-10.664,-3.034 -21.59,-1.435 -30.6,3.586 -3.622,2.017 -6.936,4.589 -9.802,7.634 -16.085,-4.429 -30.646,-11.047 -42.277,-25.496 -4.286,-5.324 1.898,-19.664 -16.161,-30.235 0.818,-2.195 1.635,-4.39 2.454,-6.585zm-67.482 -19.197c-34.702,-9.659 -69.48,-19.241 -104.251,-28.61 -35.567,-9.583 -85.667,-21.295 -121.048,-23.272 -5.763,-0.321 -8.562,2.989 -5.037,7.072 22.592,26.154 95.775,49.166 128.162,60.9 23.887,8.657 45.803,16.927 71.139,8.002 6.446,-2.271 8.736,-17.719 29.656,-17.201 0.459,-2.297 0.919,-4.594 1.379,-6.891zm4.554 12.094l52.689 14.988 6.292 -22.12c3.461,-12.166 -3.661,-24.952 -15.827,-28.413l-8.448 -2.403c-12.166,-3.461 -24.952,3.661 -28.413,15.827l-6.293 22.121zm-680.195 -389.366l-15.956 -22.426c31.58,-31.082 58.507,-64.524 80.779,-100.327 27.924,-44.852 41.886,-83.41 41.886,-115.672 0,-23.606 -4.571,-44.262 -13.713,-61.967 -9.141,-17.705 -21.358,-32.852 -36.649,-45.442l-49.865 -40.721c-24.267,25.18 -36.4,48.196 -36.4,69.049 0,21.639 9.89,45.049 29.669,70.229 19.78,25.18 38.81,37.77 57.095,37.77 7.645,0 13.296,-0.59 16.953,-1.77l9.972 9.442c-6.98,12.197 -16.288,24.59 -27.923,37.18 -14.627,15.345 -26.261,23.017 -34.905,23.017 -14.626,0 -32.411,-13.968 -53.354,-41.902 -23.27,-30.688 -34.904,-60.983 -34.904,-90.885 0,-27.934 9.806,-56.262 29.419,-84.983 8.643,-12.983 22.438,-28.721 41.387,-47.213l24.433 -24.196c7.314,-7.082 14.461,-10.623 21.441,-10.623 16.622,0 39.227,16.131 67.815,48.393 33.576,37.77 50.363,76.721 50.363,116.852 0,56.655 -29.918,120.393 -89.755,191.212 -12.3,14.557 -38.229,42.885 -77.788,84.983zm-221.893 -41.311l0 -98.557 -42.884 0c-42.551,-1.18 -78.618,5.312 -108.204,19.475l-8.477 -40.131 65.321 -106.819c19.613,-31.868 48.535,-68.065 86.763,-108.589 4.655,-5.115 17.287,-17.508 37.898,-37.18l17.95 -17.115 11.967 -14.164 23.437 12.393c-6.981,17.705 -11.968,33.64 -14.96,47.803 -2.326,17.312 -3.49,35.017 -3.49,53.115l0 135.737c19.945,0 38.893,-5.115 56.845,-15.344l-16.954 79.081 -17.951 -4.819 -7.978 -1.377 -13.962 -2.066 0 98.557 34.905 0 0 18.295 -140.118 0 0 -18.295 39.892 0zm0 -151.081l0 -151.081c-11.303,10.622 -19.282,19.081 -23.935,25.376l-19.946 26.558 -47.371 69.639c-7.645,11.016 -13.629,22.032 -17.951,33.049l48.867 -3.541 36.899 0 23.437 0zm932.449 181.86c0.28,-4.465 -0.498,-8.857 -1.664,-11.359 5.902,-6.995 14.533,-25.258 15.98,-39.004 5.393,-51.203 -13.946,-87.984 -9.62,-132.327 4.11,-42.124 47.65,-76.438 67.87,-80.768 -1.761,21.738 -4.286,43.428 -5.282,65.214 -1.942,42.469 -3.321,84.981 -3.531,127.494 -0.144,28.895 0.57,57.237 2.221,88.35 -19.523,-14.859 -26.257,-19.945 -41.629,-21.955 -10.323,-1.349 -18.289,1.73 -24.345,4.355zm-19.043 152.458c2.172,3.624 4.344,12.321 2.633,17.835 32.514,-10.552 67.562,-11.101 101.464,-2.22 -7.155,-16.913 -12.452,-52.909 -14.053,-93.427 -11.889,46.942 -42.847,78.558 -90.044,77.812zm-57.019 81.875c5.201,-7.218 6.671,-15.681 5.232,-25.112 30.277,-2.511 38.492,-35.255 8.205,-68.895 7.857,-4.775 16.558,-11.36 21.69,-19.882 10.676,6.744 41.921,2.998 57.527,-9.307 23.094,-18.212 25.114,-49.736 10.006,-68.473 -16.02,-19.867 -51.557,-20.261 -64.715,-9.339 1.023,-9.24 0.805,-19.306 -3.032,-31.785 29.536,-37.345 20.023,-56.353 14.774,-84.494 -5.715,-30.639 -14.893,-61.092 -15.222,-92.256 -0.4,-37.979 17.552,-68.959 42.201,-91.875 23.334,-21.691 47.323,-29.469 73.544,-41.908 24.626,-11.683 35.652,-19.956 50.381,-36.146 -3.23,13.377 -5.95,24.283 -6.986,38.004 -1.946,25.783 0.369,51.712 0.799,77.565 0.605,36.29 3.868,72.602 2.306,108.862 -2.132,49.511 -13.653,98.54 -15.277,148.072 -1.302,39.677 1.483,79.631 6.513,119.01 2.751,21.539 9.432,44.009 17.89,64.009 1.408,3.331 -1.177,3.242 -4.231,1.563 -8.35,-4.593 -15.743,-7.689 -25.049,-9.528 -20.914,-4.131 -42.215,-6.643 -63.517,-7.491 -18.06,-0.718 -35.696,1.471 -53.671,3.361 -2.05,0.215 -3.486,1.358 -4.874,2.882 -7.894,8.668 -13.459,20.642 -23.315,26.99 -8.369,5.39 -21.45,4.06 -31.179,6.173zm-44.309 70.154c-10.012,-0.977 -21.143,9.69 -31.155,22.028 5.348,-12.97 9.949,-29.707 13.034,-44.182 4.969,4.357 11.896,8.192 18.121,8.534 6.225,-0.342 13.15,-4.177 18.12,-8.534 3.085,14.475 7.686,31.212 13.033,44.182 -10.011,-12.338 -21.143,-23.005 -31.153,-22.028zm0 -25.365c-15.111,-1.151 -32.018,-10.76 -31.861,-38.174 7.126,-1.07 10.926,-4.285 17.061,-5.494 4.398,-0.866 10.311,-1.335 14.8,-1.335 4.488,0 10.402,0.469 14.8,1.335 6.134,1.209 9.935,4.424 17.06,5.494 0.158,27.414 -16.749,37.023 -31.86,38.174zm21.462 -65.292l-42.925 0c-2.779,0 -5.051,2.273 -5.051,5.052l0 1.924c0,2.779 2.272,5.052 5.051,5.052l42.925 0c2.779,0 5.053,-2.273 5.053,-5.052l0 -1.924c0,-2.779 -2.274,-5.052 -5.053,-5.052zm4.652 -20.639l-52.228 0c-2.923,0 -5.312,2.39 -5.312,5.312l0 2.025c0,2.922 2.389,5.312 5.312,5.312l52.228 0c2.922,0 5.312,-2.39 5.312,-5.312l0 -2.025c0,-2.922 -2.39,-5.312 -5.312,-5.312zm1.364 -26.469l-54.956 0c-4.192,0 -7.623,3.43 -7.623,7.622l0 2.906c0,4.193 3.431,7.622 7.623,7.622l54.956 0c4.192,0 7.622,-3.429 7.622,-7.622l0 -2.906c0,-4.192 -3.43,-7.622 -7.622,-7.622zm-1.818 -21.241l-51.321 0c-3.171,0 -5.765,2.595 -5.765,5.767l0 2.199c0,3.173 2.594,5.767 5.765,5.767l51.321 0c3.173,0 5.766,-2.594 5.766,-5.767l0 -2.199c0,-3.172 -2.593,-5.767 -5.766,-5.767zm-4.579 -20.478l-42.162 0c-3.173,0 -5.767,2.594 -5.767,5.766l0 2.2c0,3.172 2.594,5.767 5.767,5.767l42.162 0c3.172,0 5.767,-2.595 5.767,-5.767l0 -2.2c0,-3.172 -2.595,-5.766 -5.767,-5.766zm-4.977 -17.133l-32.208 0c-2.424,0 -4.406,1.981 -4.406,4.405l0 1.679c0,2.424 1.982,4.406 4.406,4.406l32.208 0c2.423,0 4.405,-1.982 4.405,-4.406l0 -1.679c0,-2.424 -1.982,-4.405 -4.405,-4.405zm-16.104 -10.794l-63.147 0 0 -9.818c-3.968,0.096 -8.766,0.375 -11.906,3.038 -2.901,2.461 -3.717,6.772 -4.413,9.864 -5.972,1.851 -14.879,0.551 -20.126,-1.07 -7.299,-2.254 -13.584,-6.664 -18.589,-12.437 -2.672,-3.082 -2.672,-6.744 0,-9.828 5.005,-5.772 11.29,-10.182 18.589,-12.436 5.247,-1.621 14.154,-2.92 20.126,-1.07 0.696,3.092 1.512,7.403 4.413,9.864 3.14,2.663 7.938,2.942 11.906,3.039l0 -10.587 63.147 0 63.146 0 0 10.587c3.969,-0.097 8.766,-0.376 11.906,-3.039 2.902,-2.461 3.719,-6.772 4.414,-9.864 5.972,-1.85 14.878,-0.551 20.125,1.07 7.3,2.254 13.585,6.664 18.589,12.436 2.673,3.084 2.673,6.746 0,9.828 -5.004,5.773 -11.289,10.183 -18.589,12.437 -5.247,1.621 -14.153,2.921 -20.125,1.07 -0.695,-3.092 -1.512,-7.403 -4.414,-9.864 -3.14,-2.663 -7.937,-2.942 -11.906,-3.038l0 9.818 -63.146 0zm-120.371 -97.076c-0.281,-4.465 0.497,-8.857 1.664,-11.359 -5.902,-6.995 -14.533,-25.258 -15.981,-39.004 -5.392,-51.203 13.946,-87.984 9.621,-132.327 -4.11,-42.124 -47.651,-76.438 -67.871,-80.768 1.761,21.738 4.287,43.428 5.282,65.214 1.943,42.469 3.321,84.981 3.532,127.494 0.144,28.895 -0.57,57.237 -2.221,88.35 19.523,-14.859 26.257,-19.945 41.629,-21.955 10.322,-1.349 18.288,1.73 24.345,4.355zm19.042 152.458c-2.171,3.624 -4.343,12.321 -2.632,17.835 -32.515,-10.552 -67.563,-11.101 -101.465,-2.22 7.155,-16.913 12.453,-52.909 14.053,-93.427 11.89,46.942 42.848,78.558 90.044,77.812zm57.019 81.875c-5.2,-7.218 -6.67,-15.681 -5.232,-25.112 -30.277,-2.511 -38.491,-35.255 -8.204,-68.895 -7.858,-4.775 -16.558,-11.36 -21.69,-19.882 -10.676,6.744 -41.921,2.998 -57.526,-9.307 -23.096,-18.212 -25.116,-49.736 -10.007,-68.473 16.02,-19.867 51.556,-20.261 64.714,-9.339 -1.022,-9.24 -0.805,-19.306 3.033,-31.785 -29.537,-37.345 -20.023,-56.353 -14.774,-84.494 5.714,-30.639 14.893,-61.092 15.221,-92.256 0.4,-37.979 -17.551,-68.959 -42.201,-91.875 -23.333,-21.691 -47.322,-29.469 -73.544,-41.908 -24.624,-11.683 -35.652,-19.956 -50.379,-36.146 3.228,13.377 5.949,24.283 6.984,38.004 1.947,25.783 -0.369,51.712 -0.798,77.565 -0.604,36.29 -3.868,72.602 -2.307,108.862 2.132,49.511 13.653,98.54 15.277,148.072 1.302,39.677 -1.482,79.631 -6.513,119.01 -2.751,21.539 -9.431,44.009 -17.889,64.009 -1.409,3.331 1.177,3.242 4.231,1.563 8.349,-4.593 15.742,-7.689 25.049,-9.528 20.914,-4.131 42.215,-6.643 63.516,-7.491 18.061,-0.718 35.696,1.471 53.672,3.361 2.05,0.215 3.485,1.358 4.873,2.882 7.895,8.668 13.46,20.642 23.316,26.99 8.369,5.39 21.449,4.06 31.178,6.173zm44.31 -737.411c-16.315,21.987 -32.631,43.973 -48.946,65.959 -3.795,144.706 9.121,284.99 11.707,429.39 0.366,20.451 1.357,41.76 -22.092,63.932 12.983,-0.43 23.215,-4.951 33.387,-15.678 6.583,-6.944 11.05,-18.62 11.904,-30.798 1.805,-25.736 0.347,-43.952 0.367,-68.937 0.07,-84.778 -0.355,-170.114 2.929,-254.827 1.281,-33.059 2.889,-99.183 10.744,-97.841 7.855,-1.342 9.463,64.782 10.744,97.841 3.283,84.713 2.858,170.049 2.928,254.827 0.021,24.985 -1.438,43.201 0.367,68.937 0.855,12.178 5.322,23.854 11.905,30.798 10.171,10.727 20.403,15.248 33.387,15.678 -23.449,-22.172 -22.459,-43.481 -22.092,-63.932 2.585,-144.4 15.501,-284.684 11.706,-429.39 -16.314,-21.986 -32.63,-43.972 -48.945,-65.959z"/>
 </g>
</svg>
