<?xml version="1.0" encoding="UTF-8"?>
<!DOCTYPE svg PUBLIC "-//W3C//DTD SVG 1.1//EN" "http://www.w3.org/Graphics/SVG/1.1/DTD/svg11.dtd">
<!-- Creator: CorelDRAW -->
<svg xmlns="http://www.w3.org/2000/svg" xml:space="preserve" width="210mm" height="297mm" version="1.1" style="shape-rendering:geometricPrecision; text-rendering:geometricPrecision; image-rendering:optimizeQuality; fill-rule:evenodd; clip-rule:evenodd"
viewBox="0 0 21000 29700"
 xmlns:xlink="http://www.w3.org/1999/xlink"
 xmlns:xodm="http://www.corel.com/coreldraw/odm/2003">
 <defs>
  <style type="text/css">
   <![CDATA[
    .fil0 {fill:#121212}
    .fil1 {fill:url(#id0)}
   ]]>
  </style>
  <radialGradient id="id0" gradientUnits="userSpaceOnUse" gradientTransform="matrix(1.33374 1.50775 -1.50775 1.33374 14069 -14543)" cx="7226.16" cy="10930.48" r="7186.76" fx="7226.16" fy="10930.48">
   <stop offset="0" style="stop-opacity:1; stop-color:#F7CC80"/>
   <stop offset="0.631373" style="stop-opacity:1; stop-color:#C5984E"/>
   <stop offset="1" style="stop-opacity:1; stop-color:#93641C"/>
  </radialGradient>
 </defs>
 <g id="Layer_x0020_1">
  <metadata id="CorelCorpID_0Corel-Layer"/>
  <g id="_2389222044160">
   <rect class="fil0" x="2326.09" y="6683.75" width="16333.54" height="16333.54" rx="4264.56" ry="4264.56"/>
   <path class="fil1" d="M6590.66 6683.76l7804.42 0c2345.52,0 4264.56,1919.04 4264.56,4264.56l0 7804.42c0,2345.52 -1919.04,4264.56 -4264.56,4264.56l-7804.42 0c-2345.52,0 -4264.56,-1919.04 -4264.56,-4264.56l0 -7804.42c0,-2345.52 1919.04,-4264.56 4264.56,-4264.56zm8564.34 9823.74l552.28 157.11c105.89,30.12 167.87,141.39 137.75,247.27l-95.6 336.05c-52.88,-14.59 -105.74,-29.13 -158.57,-43.64l-47.08 -12.93 84.21 -295.98c3.83,-13.47 -4.04,-27.62 -17.51,-31.45l-478.09 -136.01c-13.46,-3.83 -27.6,4.06 -31.43,17.53l-85.88 301.86 -99.47 -26.84c-34.56,-9.32 -70.16,-18.77 -106.59,-28.32l14.77 -51.92 -105 28.56c-158.77,-40.58 -330.24,-81.69 -502.39,-118.55l686.08 -186.62 5.23 -18.38c30.12,-105.89 141.4,-167.87 247.29,-137.74zm3104.64 2134.75c-48.86,-10.75 -94.02,-20.6 -134.63,-29.11 -321.78,-67.48 -619.24,-125.74 -837.21,-396.51 -55.46,-68.89 24.56,-254.46 -209.14,-391.25 10.59,-28.4 21.17,-56.81 31.77,-85.21 383.21,111.38 766.68,223.75 1149.21,337.72l0 -7129.58c0,-2125.51 -1739.04,-3864.55 -3864.55,-3864.55l-7804.44 0c-2125.51,0 -3864.55,1739.04 -3864.55,3864.55l0 2709.03c342.89,93.32 685.67,188 1027.88,283.24 -5.94,29.73 -11.9,59.46 -17.83,89.18 -270.72,-6.7 -300.35,193.2 -383.77,222.58 -221.82,78.14 -423.37,54.41 -626.28,-3.79l0 4504.19c0,2125.51 1739.04,3864.55 3864.55,3864.55l3611.3 0 -0.01 -0.01c-260.8,-238.76 -380.17,-612.58 -276.84,-975.82 145.73,-512.28 679.17,-809.44 1191.46,-663.71 512.29,145.74 809.44,679.18 663.71,1191.45 -50.87,178.82 -149,331.37 -276.96,448.08l-0.01 0.01 2891.79 0c2125.51,0 3864.55,-1739.04 3864.55,-3864.55l0 -110.49zm-6904.08 3975.04l0 -0.01c144.07,-101.63 258.34,-247.34 320.05,-424.55l-216.16 -61.5c-110.51,297.82 -422.69,471.72 -734.07,408.92l-21.94 77.13 0 0.01 652.12 0zm-758.7 0l0 -0.01 29.92 -105.18c-297.81,-110.51 -471.7,-422.68 -408.91,-734.06l-216.15 -61.5c-77.9,349.64 67.36,702.58 347.7,900.74l-0.01 0.01 247.45 0zm341.28 -1012.34c93.67,26.65 165.14,93.33 201.1,176.21 -76.33,60.38 -166.01,186.08 -252.06,201.17 122.56,31 208.47,-69.54 275.16,-118.05 5.47,41.14 2.81,84.04 -9.27,126.5 -47.2,165.91 -219.94,262.15 -385.84,214.95 -165.91,-47.19 -262.13,-219.95 -214.93,-385.85 14.82,-52.1 42.03,-97.34 77.54,-133.41 43.71,68.24 72.97,195.16 187.11,274.34 -48.95,-81.13 18.45,-265.41 15.3,-367.17 34.75,-2.28 70.48,1.23 105.89,11.31zm140.44 -306.38c297.81,110.51 471.7,422.67 408.92,734.07l216.15 61.49c95.98,-430.78 -146.8,-866.59 -563.58,-1011.71l-61.49 216.15zm-832.66 380.87c110.52,-297.81 422.67,-471.7 734.06,-408.91l61.49 -216.16c-430.77,-95.98 -866.57,146.78 -1011.7,563.58l216.15 61.49zm-1114.52 -1266.42c512.29,145.74 809.43,679.18 663.7,1191.45 -145.74,512.3 -679.16,809.46 -1191.46,663.73 -512.29,-145.74 -809.43,-679.18 -663.7,-1191.47 145.73,-512.28 679.16,-809.44 1191.46,-663.71zm-178.43 627.2c93.69,26.65 165.15,93.33 201.1,176.21 -76.32,60.38 -166,186.08 -252.05,201.17 122.57,31 208.47,-69.54 275.15,-118.05 5.47,41.14 2.81,84.04 -9.27,126.5 -47.19,165.91 -219.94,262.14 -385.83,214.95 -165.9,-47.19 -262.13,-219.94 -214.93,-385.85 14.82,-52.1 42.04,-97.33 77.52,-133.41 43.73,68.24 73,195.16 187.13,274.34 -48.95,-81.13 18.45,-265.41 15.3,-367.18 34.75,-2.28 70.47,1.24 105.88,11.32zm140.44 -306.38c297.82,110.51 471.71,422.67 408.92,734.06l216.16 61.5c95.97,-430.78 -146.8,-866.59 -563.59,-1011.71l-61.49 216.15zm380.88 832.66c-110.51,297.82 -422.69,471.72 -734.08,408.92l-61.48 216.15c430.77,95.98 866.57,-146.78 1011.71,-563.58l-216.15 -61.49zm-832.67 380.87c-297.81,-110.51 -471.71,-422.69 -408.91,-734.07l-216.16 -61.49c-95.97,430.77 146.79,866.58 563.58,1011.71l61.49 -216.15zm-380.86 -832.66c110.51,-297.81 422.67,-471.7 734.06,-408.92l61.49 -216.15c-430.76,-95.98 -866.57,146.78 -1011.71,563.58l216.16 61.49zm-1183.67 -1286.09c512.29,145.74 809.44,679.18 663.71,1191.45 -145.74,512.3 -679.18,809.46 -1191.46,663.73 -512.29,-145.74 -809.44,-679.18 -663.71,-1191.48 145.73,-512.27 679.17,-809.43 1191.46,-663.7zm-178.42 627.2c93.67,26.65 165.14,93.32 201.1,176.21 -76.33,60.38 -166.01,186.07 -252.07,201.16 122.57,31 208.48,-69.54 275.17,-118.04 5.47,41.14 2.81,84.04 -9.27,126.5 -47.2,165.91 -219.94,262.15 -385.84,214.95 -165.91,-47.2 -262.14,-219.95 -214.94,-385.86 14.82,-52.09 42.04,-97.33 77.54,-133.4 43.72,68.23 72.99,195.16 187.13,274.34 -48.96,-81.13 18.43,-265.41 15.3,-367.18 34.75,-2.27 70.47,1.24 105.88,11.32zm140.43 -306.38c297.82,110.51 471.71,422.67 408.92,734.06l216.17 61.5c95.97,-430.78 -146.81,-866.59 -563.6,-1011.71l-61.49 216.15zm380.87 832.66c-110.5,297.82 -422.68,471.72 -734.07,408.92l-61.49 216.14c430.78,95.99 866.59,-146.77 1011.73,-563.57l-216.17 -61.49zm-832.66 380.87c-297.81,-110.51 -471.7,-422.69 -408.92,-734.07l-216.14 -61.49c-95.98,430.77 146.78,866.58 563.58,1011.71l61.48 -216.15zm-380.87 -832.67c110.53,-297.8 422.68,-471.7 734.07,-408.91l61.49 -216.15c-430.76,-95.98 -866.57,146.78 -1011.7,563.58l216.14 61.48zm9791.78 -1301.71l-130.47 1012.91 63.76 18.13 256.12 -977.16 -189.41 -53.88zm268.18 -1188.77l279.05 79.39c16.6,4.72 26.32,22.15 21.6,38.74l-217.91 766.01c-4.73,16.6 -22.17,26.3 -38.76,21.58l-279.06 -79.38c-16.59,-4.72 -26.3,-22.15 -21.58,-38.75l217.91 -766.01c4.72,-16.59 22.15,-26.3 38.75,-21.58zm-12754.47 -2363.28l-150.7 1007.15 63.75 18.14 276.34 -971.41 -189.39 -53.88zm281.66 -1184.93l279.06 79.39c16.59,4.72 26.3,22.15 21.58,38.74l-217.91 766.01c-4.72,16.6 -22.15,26.3 -38.75,21.58l-279.05 -79.39c-16.6,-4.72 -26.32,-22.14 -21.6,-38.74l217.91 -766.01c4.72,-16.59 22.16,-26.3 38.76,-21.58zm833.64 -302.61c447.58,130.09 895.52,261.53 1341.89,395.29 456.61,136.81 1087.61,349.2 1490.39,568.44 65.6,35.7 73.84,91.19 7.23,112.09 -426.71,133.91 -1388.63,-111.37 -1824.92,-202.85 -321.78,-67.47 -619.26,-125.74 -837.23,-396.51 -55.46,-68.89 24.56,-254.45 -209.13,-391.25 10.59,-28.39 21.17,-56.8 31.77,-85.21zm-132.5 102.03l-681.8 -193.95 81.43 -286.24c44.78,-157.43 210.23,-249.6 367.67,-204.81l109.31 31.1c157.44,44.78 249.6,210.23 204.81,367.67l-81.42 286.23zm2532.1 2704.77l-2520.82 -1723.39 64.09 -225.29 2654.51 1711.48c-76.34,73.73 -142.57,153.41 -197.78,237.2zm-2665.46 -1280.61l2523.59 2215.62c4.48,13 9.27,25.96 14.35,38.88 100.24,254.96 348.96,439.06 655.56,581.87 -154.85,391.92 -157.1,678.34 -24.15,884.1 246.79,382 877.09,580.66 1647.45,812.94 777.27,207.98 1417.76,370.83 1828.67,175.93 221.34,-104.97 370.19,-349.68 444.82,-764.43 335.85,39.96 644.24,14.33 863.67,-149.69 11.11,-8.3 22.01,-16.8 32.68,-25.51l3311.9 -555.55c7.71,77.58 50.43,148.76 116.06,191.83l-167.4 1297.89 520.19 147.98 519.93 -1200.97c106.23,-6.99 202.01,-79.64 232.7,-187.52l274.18 -963.8c38.98,-137.01 -41.22,-281 -178.24,-319.98l-714.69 -203.31c-137.02,-38.98 -281,41.24 -319.98,178.25l-6.76 23.78 -3396.89 62.38c-18.42,-34.82 -38.21,-69.4 -59.49,-103.64l1331.17 -24.45 532.21 -220.32c-162.66,-60.2 -334.91,-127.81 -498.24,-201.52l-1374.59 431.19 -2.1 -3.37c-46.7,-73.06 -100.24,-142.79 -159.31,-209.41l1275.02 -346.81c-105.33,-57.13 -200.85,-116.98 -279.86,-179.09l-1198.85 326.09c-535.64,-462.15 -1332.36,-743.63 -1868.49,-896.15 -536.14,-152.52 -1361.72,-332.54 -2060.41,-221.52l-847.7 -908.29c-99.88,11.22 -212.59,11.83 -332.22,4.97l901.57 966c-85.3,25.55 -167.52,56.65 -245.68,94.2l-3.57 1.75 -941.8 -1090.15c-177.69,-23.3 -359.72,-56.48 -529.71,-90.9l336.55 467.46 1118.99 721.46c-36.13,17.91 -71.14,36.9 -105.14,56.81l-2855.43 -1841.02 6.77 -23.78c38.97,-137.01 -41.23,-281 -178.24,-319.98l-714.7 -203.31c-137.01,-38.98 -280.99,41.24 -319.97,178.25l-274.18 963.8c-30.69,107.88 12.52,220.06 99.17,281.92l-190.07 1294.81 520.19 147.98 540.82 -1191.65c78.47,-2.08 152.25,-40.12 199.65,-102.02zm-395.7 58.43l-452.04 980.23 -181.31 -49.24 156.62 -1066.61 476.73 135.62zm409.5 -1170.28l-618.65 -176c-17.43,-4.95 -35.74,5.25 -40.7,22.67l-243.37 855.51c-4.96,17.43 5.25,35.73 22.67,40.69l618.66 175.99c17.43,4.96 35.72,-5.23 40.68,-22.66l243.37 -855.51c4.96,-17.43 -5.23,-35.74 -22.66,-40.69zm11862 2888.41c-449.03,-124.97 -899.08,-248.99 -1349.02,-370.22 -460.25,-124 -1108.56,-275.55 -1566.43,-301.14 -74.56,-4.18 -110.78,38.67 -65.14,91.5 292.33,338.46 1239.32,636.22 1658.43,788.08 309.12,112 592.72,219.04 920.58,103.54 83.41,-29.38 113.04,-229.28 383.74,-222.59 5.95,-29.71 11.9,-59.44 17.84,-89.17zm58.96 156.5l681.8 193.95 81.43 -286.23c44.78,-157.44 -47.38,-322.89 -204.81,-367.67l-109.32 -31.1c-157.44,-44.79 -322.88,47.38 -367.67,204.81l-81.43 286.24zm-3576.61 966.99l3050.46 -138.5 64.09 -225.29 -3157.88 57.99c26.11,102.88 40.48,205.49 43.33,305.8zm3246.08 572.07l-131.59 1071.39 180.08 53.57 428.25 -989.34 -476.74 -135.62zm267.8 -1210.59l618.66 175.99c17.43,4.96 27.63,23.27 22.67,40.69l-243.37 855.51c-4.96,17.43 -23.27,27.62 -40.7,22.66l-618.65 -175.99c-17.43,-4.96 -27.62,-23.26 -22.66,-40.68l243.37 -855.51c4.96,-17.43 23.26,-27.63 40.68,-22.67zm-7506.22 999.75l81.06 843.95c289.03,137.62 591.79,223.23 909.85,258.83l513.14 -674.91c-278.6,-72.8 -539,-147.32 -753.61,-208.37 -214.62,-61.05 -475.24,-134.76 -750.44,-219.5zm-832.11 -1007.32c1233.06,-47.94 2439.9,319.61 3620.09,1108.53 -1260.76,-516.87 -2470.6,-894.95 -3620.09,-1108.53zm1678.65 888.98c290.19,82.56 1005.67,268.98 1570.59,381.89 522.73,104.48 895.43,61.54 1122.99,-108.56 36.48,-27.27 56.65,-60.4 62.74,-98.31 60.33,-375.08 -36.87,-924.2 -441.88,-1296.98 -560.3,-515.72 -1412.66,-774.59 -1747.79,-869.93 -335.14,-95.33 -1196.12,-323.87 -1943.98,-180.29 -540.57,103.78 -912.26,519.52 -1058.39,870.19 -14.77,35.44 -15.06,74.23 1.61,116.62 103.95,264.4 398.24,497.08 897.69,683.39 539.77,201.35 1246.24,419.43 1536.42,501.98zm5584.18 -2081.44l215.65 61.35c12.83,3.65 20.32,17.12 16.68,29.95l-74.26 261.04c-87.82,-23.95 -175.54,-47.8 -263.17,-71.51l75.14 -264.15c3.65,-12.82 17.13,-20.33 29.96,-16.68zm-9638.7 -2741.98l215.64 61.35c12.83,3.65 20.32,17.12 16.67,29.94l-74.5 261.89c-87.03,-25.83 -174.2,-51.61 -261.48,-77.35l73.72 -259.14c3.65,-12.82 17.13,-20.33 29.95,-16.69zm-30.62 -425.81c-347,-96.58 -694.79,-192.41 -1042.5,-286.1 -355.66,-95.83 -856.66,-212.94 -1210.5,-232.73 -57.62,-3.21 -85.6,29.9 -50.33,70.73 134.12,155.27 446.55,299.47 746.07,415.57 16.88,-13.26 34.77,-25.17 53.48,-35.59 90.11,-50.21 199.35,-66.2 305.99,-35.86l109.31 31.1c106.62,30.33 191.11,101.43 241.32,191.56 20.16,36.2 34.8,75.51 43.15,116.5 160.08,47 318.72,67.37 493.67,5.74 64.47,-22.71 87.36,-177.19 296.56,-172.01 4.59,-22.97 9.19,-45.94 13.78,-68.91zm674.83 191.97c345.89,100.53 692.03,202.11 1036.99,305.47 352.86,105.72 840.49,269.85 1151.74,439.27 50.68,27.6 57.05,70.48 5.58,86.63 -329.75,103.48 -1073.12,-86.07 -1410.26,-156.76 -248.66,-52.13 -478.54,-97.17 -646.99,-306.42 -42.85,-53.23 18.99,-196.63 -161.62,-302.35 8.2,-21.94 16.38,-43.89 24.56,-65.84zm-102.39 78.85l-526.88 -149.88 62.92 -221.21c34.61,-121.66 162.47,-192.88 284.13,-158.27l84.48 24.03c121.67,34.61 192.89,162.47 158.28,284.13l-62.93 221.2zm43.49 636.2l14.76 -51.91 74.25 79.55c156.35,49.06 323.79,104.36 489.57,163.63l-485.13 -519.79 5.23 -18.39c30.13,-105.88 -31.87,-217.15 -137.74,-247.27l-552.3 -157.12c-105.89,-30.12 -217.16,31.86 -247.28,137.75l-95.6 336.05c52.65,15.43 105.25,30.88 157.8,46.35l46.84 13.79 84.2 -295.98c3.83,-13.47 17.97,-21.36 31.43,-17.53l478.09 136c13.47,3.84 21.34,17.99 17.51,31.45l-85.88 301.87 98.71 29.53c34.29,10.27 69.54,20.97 105.54,32.02zm9705.63 2029.21c345.88,100.53 692.03,202.11 1036.99,305.47 352.85,105.72 840.47,269.85 1151.74,439.27 50.68,27.6 57.05,70.48 5.58,86.63 -195.78,61.43 -537.32,19.59 -853.11,-39.35 -7.37,-20.16 -16.31,-39.7 -26.74,-58.41 -50.19,-90.12 -134.67,-161.22 -241.29,-191.55l-109.31 -31.1c-106.64,-30.34 -215.9,-14.35 -306,35.86 -36.22,20.17 -69.36,45.89 -98.02,76.34 -160.85,-44.29 -306.46,-110.47 -422.77,-254.96 -42.86,-53.24 18.98,-196.64 -161.61,-302.35 8.18,-21.95 16.35,-43.9 24.54,-65.85zm-674.82 -191.97c-347.02,-96.59 -694.8,-192.41 -1042.51,-286.1 -355.67,-95.83 -856.67,-212.95 -1210.48,-232.72 -57.63,-3.21 -85.62,29.89 -50.37,70.72 225.92,261.54 957.75,491.66 1281.62,609 238.87,86.57 458.03,169.27 711.39,80.02 64.46,-22.71 87.36,-177.19 296.56,-172.01 4.59,-22.97 9.19,-45.94 13.79,-68.91zm45.54 120.94l526.89 149.88 62.92 -221.2c34.61,-121.66 -36.61,-249.52 -158.27,-284.13l-84.48 -24.03c-121.66,-34.61 -249.52,36.61 -284.13,158.27l-62.93 221.21zm-6801.95 -3893.66l-159.56 -224.26c315.8,-310.82 585.07,-645.24 807.79,-1003.27 279.24,-448.52 418.86,-834.1 418.86,-1156.72 0,-236.06 -45.71,-442.62 -137.13,-619.67 -91.41,-177.05 -213.58,-328.52 -366.49,-454.42l-498.65 -407.21c-242.67,251.8 -364,481.96 -364,690.49 0,216.39 98.9,450.49 296.69,702.29 197.8,251.8 388.1,377.7 570.95,377.7 76.45,0 132.96,-5.9 169.53,-17.7l99.72 94.42c-69.8,121.97 -162.88,245.9 -279.23,371.8 -146.27,153.45 -262.61,230.17 -349.05,230.17 -146.26,0 -324.11,-139.68 -533.54,-419.02 -232.7,-306.88 -349.04,-609.83 -349.04,-908.85 0,-279.34 98.06,-562.62 294.19,-849.83 86.43,-129.83 224.38,-287.21 413.87,-472.13l244.33 -241.96c73.14,-70.82 144.61,-106.23 214.41,-106.23 166.22,0 392.27,161.31 678.15,483.93 335.76,377.7 503.63,767.21 503.63,1168.52 0,566.55 -299.18,1203.93 -897.55,1912.12 -123,145.57 -382.29,428.85 -777.88,849.83zm-2218.93 -413.11l0 -985.57 -428.84 0c-425.51,-11.8 -786.18,53.12 -1082.04,194.75l-84.77 -401.31 653.21 -1068.19c196.13,-318.68 485.35,-680.65 867.63,-1085.89 46.55,-51.15 172.87,-175.08 378.98,-371.8l179.5 -171.15 119.67 -141.64 234.37 123.93c-69.81,177.05 -119.68,336.4 -149.6,478.03 -23.26,173.12 -34.9,350.17 -34.9,531.15l0 1357.37c199.45,0 388.93,-51.15 568.45,-153.44l-169.54 790.81 -179.51 -48.19 -79.78 -13.77 -139.62 -20.66 0 985.57 349.05 0 0 182.95 -1401.18 0 0 -182.95 398.92 0zm0 -1510.81l0 -1510.81c-113.03,106.22 -192.82,190.81 -239.35,253.76l-199.46 265.58 -473.71 696.39c-76.45,110.16 -136.29,220.32 -179.51,330.49l488.67 -35.41 368.99 0 234.37 0zm9324.49 1818.6c2.8,-44.65 -4.98,-88.57 -16.64,-113.59 59.02,-69.95 145.33,-252.58 159.8,-390.04 53.93,-512.03 -139.46,-879.84 -96.2,-1323.27 41.1,-421.24 476.5,-764.38 678.7,-807.68 -17.61,217.38 -42.86,434.28 -52.82,652.14 -19.42,424.69 -33.21,849.81 -35.31,1274.94 -1.44,288.95 5.7,572.37 22.21,883.5 -195.23,-148.59 -262.57,-199.45 -416.29,-219.55 -103.23,-13.49 -182.89,17.3 -243.45,43.55zm-190.43 1524.58c21.72,36.24 43.44,123.21 26.33,178.35 325.14,-105.52 675.62,-111.01 1014.64,-22.2 -71.55,-169.13 -124.52,-529.09 -140.53,-934.27 -118.89,469.42 -428.47,785.58 -900.44,778.12zm-570.19 818.75c52.01,-72.18 66.71,-156.81 52.32,-251.12 302.77,-25.11 384.92,-352.55 82.05,-688.95 78.57,-47.75 165.58,-113.6 216.9,-198.82 106.76,67.44 419.21,29.98 575.27,-93.07 230.94,-182.12 251.14,-497.36 100.06,-684.73 -160.2,-198.67 -515.57,-202.61 -647.15,-93.39 10.23,-92.4 8.05,-193.06 -30.32,-317.85 295.36,-373.45 200.23,-563.53 147.74,-844.94 -57.15,-306.39 -148.93,-610.92 -152.22,-922.56 -4,-379.79 175.52,-689.59 422.01,-918.75 233.34,-216.91 473.23,-294.69 735.44,-419.08 246.26,-116.83 356.52,-199.56 503.81,-361.46 -32.3,133.77 -59.5,242.83 -69.86,380.04 -19.46,257.83 3.69,517.12 7.99,775.65 6.05,362.9 38.68,726.02 23.06,1088.62 -21.32,495.11 -136.53,985.4 -152.77,1480.72 -13.02,396.77 14.83,796.31 65.13,1190.1 27.51,215.39 94.32,440.09 178.9,640.09 14.08,33.31 -11.77,32.42 -42.31,15.63 -83.5,-45.93 -157.43,-76.89 -250.49,-95.28 -209.14,-41.31 -422.15,-66.43 -635.17,-74.91 -180.6,-7.18 -356.96,14.71 -536.71,33.61 -20.5,2.15 -34.86,13.58 -48.74,28.82 -78.94,86.68 -134.59,206.42 -233.15,269.9 -83.69,53.9 -214.5,40.6 -311.79,61.73zm-443.09 701.54c-100.12,-9.77 -211.43,96.9 -311.55,220.28 53.48,-129.7 99.49,-297.07 130.34,-441.82 49.69,43.57 118.96,81.92 181.21,85.34 62.25,-3.42 131.5,-41.77 181.2,-85.34 30.85,144.75 76.86,312.12 130.33,441.82 -100.11,-123.38 -211.43,-230.05 -311.53,-220.28zm0 -253.65c-151.11,-11.51 -320.18,-107.6 -318.61,-381.74 71.26,-10.7 109.26,-42.85 170.61,-54.94 43.98,-8.66 103.11,-13.35 148,-13.35 44.88,0 104.02,4.69 148,13.35 61.34,12.09 99.35,44.24 170.6,54.94 1.58,274.14 -167.49,370.23 -318.6,381.74zm214.62 -652.92l-429.25 0c-27.79,0 -50.51,22.73 -50.51,50.52l0 19.24c0,27.79 22.72,50.52 50.51,50.52l429.25 0c27.79,0 50.53,-22.73 50.53,-50.52l0 -19.24c0,-27.79 -22.74,-50.52 -50.53,-50.52zm46.52 -206.39l-522.28 0c-29.23,0 -53.12,23.9 -53.12,53.12l0 20.25c0,29.22 23.89,53.12 53.12,53.12l522.28 0c29.22,0 53.12,-23.9 53.12,-53.12l0 -20.25c0,-29.22 -23.9,-53.12 -53.12,-53.12zm13.64 -264.69l-549.56 0c-41.92,0 -76.23,34.3 -76.23,76.22l0 29.06c0,41.93 34.31,76.22 76.23,76.22l549.56 0c41.92,0 76.22,-34.29 76.22,-76.22l0 -29.06c0,-41.92 -34.3,-76.22 -76.22,-76.22zm-18.18 -212.41l-513.21 0c-31.71,0 -57.65,25.95 -57.65,57.67l0 21.99c0,31.73 25.94,57.67 57.65,57.67l513.21 0c31.73,0 57.66,-25.94 57.66,-57.67l0 -21.99c0,-31.72 -25.93,-57.67 -57.66,-57.67zm-45.79 -204.78l-421.62 0c-31.73,0 -57.67,25.94 -57.67,57.66l0 22c0,31.72 25.94,57.67 57.67,57.67l421.62 0c31.72,0 57.67,-25.95 57.67,-57.67l0 -22c0,-31.72 -25.95,-57.66 -57.67,-57.66zm-49.77 -171.33l-322.08 0c-24.24,0 -44.06,19.81 -44.06,44.05l0 16.79c0,24.24 19.82,44.06 44.06,44.06l322.08 0c24.23,0 44.05,-19.82 44.05,-44.06l0 -16.79c0,-24.24 -19.82,-44.05 -44.05,-44.05zm-161.04 -107.94l-631.47 0 0 -98.18c-39.68,0.96 -87.66,3.75 -119.06,30.38 -29.01,24.61 -37.17,67.72 -44.13,98.64 -59.72,18.51 -148.79,5.51 -201.26,-10.7 -72.99,-22.54 -135.84,-66.64 -185.89,-124.37 -26.72,-30.82 -26.72,-67.44 0,-98.28 50.05,-57.72 112.9,-101.82 185.89,-124.36 52.47,-16.21 141.54,-29.2 201.26,-10.7 6.96,30.92 15.12,74.03 44.13,98.64 31.4,26.63 79.38,29.42 119.06,30.39l0 -105.87 631.47 0 631.46 0 0 105.87c39.69,-0.97 87.66,-3.76 119.06,-30.39 29.02,-24.61 37.19,-67.72 44.14,-98.64 59.72,-18.5 148.78,-5.51 201.25,10.7 73,22.54 135.85,66.64 185.89,124.36 26.73,30.84 26.73,67.46 0,98.28 -50.04,57.73 -112.89,101.83 -185.89,124.37 -52.47,16.21 -141.53,29.21 -201.25,10.7 -6.95,-30.92 -15.12,-74.03 -44.14,-98.64 -31.4,-26.63 -79.37,-29.42 -119.06,-30.38l0 98.18 -631.46 0zm-1203.71 -970.76c-2.81,-44.65 4.97,-88.57 16.64,-113.59 -59.02,-69.95 -145.33,-252.58 -159.81,-390.04 -53.92,-512.03 139.46,-879.84 96.21,-1323.27 -41.1,-421.24 -476.51,-764.38 -678.71,-807.68 17.61,217.38 42.87,434.28 52.82,652.14 19.43,424.69 33.21,849.81 35.32,1274.94 1.44,288.95 -5.7,572.37 -22.21,883.5 195.23,-148.59 262.57,-199.45 416.29,-219.55 103.22,-13.49 182.88,17.3 243.45,43.55zm190.42 1524.58c-21.71,36.24 -43.43,123.21 -26.32,178.35 -325.15,-105.52 -675.63,-111.01 -1014.65,-22.2 71.55,-169.13 124.53,-529.09 140.53,-934.27 118.9,469.42 428.48,785.58 900.44,778.12zm570.19 818.75c-52,-72.18 -66.7,-156.81 -52.32,-251.12 -302.77,-25.11 -384.91,-352.55 -82.04,-688.95 -78.58,-47.75 -165.58,-113.6 -216.9,-198.82 -106.76,67.44 -419.21,29.98 -575.26,-93.07 -230.96,-182.12 -251.16,-497.36 -100.07,-684.73 160.2,-198.67 515.56,-202.61 647.14,-93.39 -10.22,-92.4 -8.05,-193.06 30.33,-317.85 -295.37,-373.45 -200.23,-563.53 -147.74,-844.94 57.14,-306.39 148.93,-610.92 152.21,-922.56 4,-379.79 -175.51,-689.59 -422.01,-918.75 -233.33,-216.91 -473.22,-294.69 -735.44,-419.08 -246.24,-116.83 -356.52,-199.56 -503.79,-361.46 32.28,133.77 59.49,242.83 69.84,380.04 19.47,257.83 -3.69,517.12 -7.98,775.65 -6.04,362.9 -38.68,726.02 -23.07,1088.62 21.32,495.11 136.53,985.4 152.77,1480.72 13.02,396.77 -14.82,796.31 -65.13,1190.1 -27.51,215.39 -94.31,440.09 -178.89,640.09 -14.09,33.31 11.77,32.42 42.31,15.63 83.49,-45.93 157.42,-76.89 250.49,-95.28 209.14,-41.31 422.15,-66.43 635.16,-74.91 180.61,-7.18 356.96,14.71 536.72,33.61 20.5,2.15 34.85,13.58 48.73,28.82 78.95,86.68 134.6,206.42 233.16,269.9 83.69,53.9 214.49,40.6 311.78,61.73zm443.1 -7374.11c-163.15,219.87 -326.31,439.73 -489.46,659.59 -37.95,1447.06 91.21,2849.9 117.07,4293.9 3.66,204.51 13.57,417.6 -220.92,639.32 129.83,-4.3 232.15,-49.51 333.87,-156.78 65.83,-69.44 110.5,-186.2 119.04,-307.98 18.05,-257.36 3.47,-439.52 3.67,-689.37 0.7,-847.78 -3.55,-1701.14 29.29,-2548.27 12.81,-330.59 28.89,-991.83 107.44,-978.41 78.55,-13.42 94.63,647.82 107.44,978.41 32.83,847.13 28.58,1700.49 29.28,2548.27 0.21,249.85 -14.38,432.01 3.67,689.37 8.55,121.78 53.22,238.54 119.05,307.98 101.71,107.27 204.03,152.48 333.87,156.78 -234.49,-221.72 -224.59,-434.81 -220.92,-639.32 25.85,-1444 155.01,-2846.84 117.06,-4293.9 -163.14,-219.86 -326.3,-439.72 -489.45,-659.59z"/>
  </g>
 </g>
</svg>
